<?xml version="1.0" encoding="UTF-8" standalone="no"?>
<svg
   xmlns:bx="https://boxy-svg.com"
   xmlns:dc="http://purl.org/dc/elements/1.1/"
   xmlns:cc="http://creativecommons.org/ns#"
   xmlns:rdf="http://www.w3.org/1999/02/22-rdf-syntax-ns#"
   xmlns:svg="http://www.w3.org/2000/svg"
   xmlns="http://www.w3.org/2000/svg"
   xmlns:xlink="http://www.w3.org/1999/xlink"
   xmlns:sodipodi="http://sodipodi.sourceforge.net/DTD/sodipodi-0.dtd"
   xmlns:inkscape="http://www.inkscape.org/namespaces/inkscape"
   viewBox="0 0 88.000002 35.000001"
   version="1.1"
   id="svg29"
   sodipodi:docname="logo.svg"
   inkscape:version="0.92.2 5c3e80d, 2017-08-06"
   width="88"
   height="35"
   inkscape:export-filename="D:\git\joseph\champy-db\client\res\logo-large-white.png"
   inkscape:export-xdpi="1227.8525"
   inkscape:export-ydpi="1227.8525">
  <metadata
     id="metadata33">
    <rdf:RDF>
      <cc:Work
         rdf:about="">
        <dc:format>image/svg+xml</dc:format>
        <dc:type
           rdf:resource="http://purl.org/dc/dcmitype/StillImage" />
        <dc:title></dc:title>
      </cc:Work>
    </rdf:RDF>
  </metadata>
  <sodipodi:namedview
     pagecolor="#ffffff"
     bordercolor="#666666"
     borderopacity="1"
     objecttolerance="10"
     gridtolerance="10"
     guidetolerance="10"
     inkscape:pageopacity="0"
     inkscape:pageshadow="2"
     inkscape:window-width="1770"
     inkscape:window-height="987"
     id="namedview31"
     showgrid="false"
     showguides="false"
     inkscape:guide-bbox="true"
     inkscape:zoom="5.6568543"
     inkscape:cx="7.4693544"
     inkscape:cy="30.742689"
     inkscape:window-x="12"
     inkscape:window-y="1120"
     inkscape:window-maximized="0"
     inkscape:current-layer="svg29"
     fit-margin-top="0"
     fit-margin-left="0"
     fit-margin-right="0"
     fit-margin-bottom="0"
     inkscape:snap-smooth-nodes="true"
     inkscape:snap-intersection-paths="false"
     inkscape:snap-others="true"
     inkscape:snap-to-guides="true"
     inkscape:object-nodes="false"
     inkscape:snap-bbox="true"
     inkscape:bbox-paths="true"
     inkscape:snap-bbox-midpoints="true"
     inkscape:snap-bbox-edge-midpoints="true"
     inkscape:bbox-nodes="true">
    <inkscape:grid
       type="xygrid"
       id="grid4707"
       originx="4.9164415"
       originy="-0.075703747" />
    <sodipodi:guide
       position="136.78097,58.601475"
       orientation="1,0"
       id="guide912"
       inkscape:locked="false" />
    <sodipodi:guide
       position="140.78325,56.259184"
       orientation="1,0"
       id="guide914"
       inkscape:locked="false" />
    <sodipodi:guide
       position="132.11849,70.18035"
       orientation="0,1"
       id="guide916"
       inkscape:locked="false" />
  </sodipodi:namedview>
  <defs
     id="defs5">
    <pattern
       id="pattern-0"
       x="0"
       y="0"
       width="20"
       height="20"
       patternUnits="userSpaceOnUse"
       viewBox="0 0 100 100">
      <path
         d="M 0 0 L 50 0 L 50 100 L 0 100 Z"
         style="fill: black;"
         id="path2" />
    </pattern>
    <bx:guide
       x="237.516"
       y="120.957"
       angle="90" />
    <bx:guide
       x="185.035"
       y="78.579"
       angle="0" />
    <bx:guide
       x="234.929"
       y="89.913"
       angle="0" />
    <bx:guide
       x="284.822"
       y="97.304"
       angle="0" />
    <bx:guide
       x="334.838"
       y="99.218"
       angle="0" />
    <bx:guide
       x="260.789"
       y="147.836"
       angle="90" />
    <bx:guide
       x="284.724"
       y="151.042"
       angle="90" />
    <bx:guide
       x="214.099"
       y="123.75"
       angle="90" />
  </defs>
  <g
     id="g1021"
     style="fill:#ffffff"
     transform="scale(0.44699425,0.4477113)">
    <path
       inkscape:export-ydpi="1227.8525"
       inkscape:export-xdpi="1227.8525"
       inkscape:connector-curvature="0"
       id="path7"
       style="white-space:pre;fill:#ffffff;fill-opacity:1"
       d="m 48.380456,45.035564 v 0 0 c 0.747,0.907 1.453,1.773 2.12,2.6 v 0 0 c 0.667,0.827 1.347,1.693 2.04,2.6 v 0 0 c -1.493,1.173 -3.173,2.107 -5.04,2.8 v 0 0 c -1.867,0.693 -3.893,1.04 -6.08,1.04 v 0 0 c -2.453,0 -4.76,-0.467 -6.92,-1.4 v 0 0 c -2.16,-0.933 -4.04,-2.2 -5.64,-3.8 v 0 0 c -1.6,-1.6 -2.867,-3.467 -3.8,-5.6 v 0 0 c -0.933002,-2.133 -1.400002,-4.4 -1.400002,-6.8 v 0 0 c 0,-2.4 0.467,-4.667 1.400002,-6.8 v 0 0 c 0.933,-2.133 2.2,-3.987 3.8,-5.56 v 0 0 c 1.6,-1.573 3.48,-2.827 5.64,-3.76 v 0 0 c 2.16,-0.933 4.467,-1.4 6.92,-1.4 v 0 0 c 2.24,0 4.307,0.347 6.2,1.04 v 0 0 c 1.893,0.693 3.613,1.627 5.16,2.8 v 0 l -4.4,5.2 v 0 c -0.907,-0.747 -1.947,-1.32 -3.12,-1.72 v 0 0 c -1.173,-0.4 -2.453,-0.6 -3.84,-0.6 v 0 0 c -1.6,0 -3.067,0.28 -4.4,0.84 v 0 0 c -1.333,0.56 -2.493,1.32 -3.48,2.28 v 0 0 c -0.987,0.96 -1.747,2.093 -2.28,3.4 v 0 0 c -0.533,1.307 -0.8,2.733 -0.8,4.28 v 0 0 c 0,1.547 0.267,2.973 0.8,4.28 v 0 0 c 0.533,1.307 1.293,2.453 2.28,3.44 v 0 0 c 0.987,0.987 2.147,1.76 3.48,2.32 v 0 0 c 1.333,0.56 2.8,0.84 4.4,0.84 v 0 0 c 1.387,0 2.667,-0.2 3.84,-0.6 v 0 0 c 1.173,-0.4 2.213,-0.973 3.12,-1.72 z" />
    <path
       inkscape:export-ydpi="1227.8525"
       inkscape:export-xdpi="1227.8525"
       d="M 153.37695,0.00195313 V 24.992188 h 7.0293 c 1.707,0 3.31708,-0.288329 4.83008,-0.861329 1.52,-0.573 2.85023,-1.39575 3.99023,-2.46875 1.147,-1.073 2.05747,-2.367859 2.73047,-3.880859 0.68,-1.52 1.01953,-3.222375 1.01953,-5.109375 0,-1.473 -0.24723,-2.9609375 -0.74023,-4.4609375 -0.487,-1.507 -1.27891,-2.8670781 -2.37891,-4.0800781 -1.093,-1.213 -2.51848,-2.2055157 -4.27148,-2.9785156 -1.747,-0.76700005 -3.88039,-1.15039067 -6.40039,-1.15039067 z m 24.94922,0 V 24.992188 h 6.85938 c 1.027,0 2.02047,-0.133391 2.98047,-0.400391 0.953,-0.273 1.79825,-0.677938 2.53125,-1.210938 0.74,-0.54 1.32953,-1.228359 1.76953,-2.068359 0.447,-0.84 0.66992,-1.821406 0.66992,-2.941406 0,-0.907 -0.14645,-1.701672 -0.43945,-2.388672 -0.293,-0.693 -0.68016,-1.284484 -1.16016,-1.771484 -0.473,-0.493 -1.02063,-0.889454 -1.64063,-1.189454 -0.62,-0.307 -1.25715,-0.529921 -1.91015,-0.669922 0.727,-0.207 1.33332,-0.503624 1.82031,-0.890624 0.493,-0.387001 0.88945,-0.839375 1.18945,-1.359376 0.307,-0.5269995 0.52993,-1.1007026 0.66993,-1.7207026 0.14,-0.62 0.21093,-1.2664531 0.21093,-1.9394532 0,-1.1669999 -0.18378,-2.1604687 -0.55078,-2.9804687 -0.36,-0.813 -0.87583,-1.4752813 -1.54883,-1.9882813 -0.68,-0.51299995 -1.4944,-0.8880937 -2.4414,-1.1210937 -0.94,-0.233 -1.99316,-0.34960937 -3.16016,-0.34960937 z m 2.38086,2.16992187 h 3.75 c 1.493,0 2.70567,0.3507812 3.63867,1.0507812 0.933,0.7 1.40039,1.8286719 1.40039,3.3886719 0,1.380001 -0.38715,2.5199219 -1.16015,3.4199219 -0.767,0.893 -1.90969,1.339844 -3.42969,1.339844 h -4.19922 z M 155.78711,2.3125 h 4.12891 c 1.633,0 3.10315,0.2620625 4.41015,0.7890625 1.307,0.52 2.42638,1.2373896 3.35938,2.1503906 0.933,0.907 1.65039,1.9872344 2.15039,3.2402344 0.507,1.247 0.75976,2.5920625 0.75976,4.0390625 0,1.587 -0.26859,3.009531 -0.80859,4.269531 -0.533,1.26 -1.2737,2.328171 -2.2207,3.201172 -0.947,0.872999 -2.05708,1.542766 -3.33008,2.009766 -1.267,0.467 -2.62331,0.699219 -4.07031,0.699219 h -4.37891 z m 24.91992,11.128906 h 3.75 c 0.793,0 1.56731,0.08677 2.32031,0.259766 0.76,0.173 1.43631,0.447312 2.0293,0.820312 0.60001,0.373 1.07292,0.863704 1.41992,1.470704 0.353,0.606999 0.5293,1.329921 0.5293,2.169921 0,0.773 -0.15198,1.449297 -0.45898,2.029297 -0.30001,0.587 -0.71324,1.073938 -1.24024,1.460938 -0.52699,0.38 -1.13984,0.66914 -1.83984,0.86914 -0.7,0.2 -1.44724,0.300782 -2.24024,0.300782 h -4.26953 z"
       inkscape:href="#path9"
       id="path4744"
       style="white-space:pre;fill:#ffffff;fill-opacity:1"
       xlink:href="#path9"
       inkscape:original="M 153.37695 0.001953125 L 153.37695 24.992188 L 160.40625 24.992188 C 162.11325 24.992188 163.72333 24.703859 165.23633 24.130859 C 166.75633 23.557859 168.08656 22.735109 169.22656 21.662109 C 170.37356 20.589109 171.28403 19.29425 171.95703 17.78125 C 172.63703 16.26125 172.97656 14.558875 172.97656 12.671875 C 172.97656 11.198875 172.72933 9.7109375 172.23633 8.2109375 C 171.74933 6.7039375 170.95742 5.3438594 169.85742 4.1308594 C 168.76442 2.9178594 167.33894 1.9253437 165.58594 1.1523438 C 163.83894 0.38534375 161.70555 0.001953125 159.18555 0.001953125 L 153.37695 0.001953125 z M 178.32617 0.001953125 L 178.32617 24.992188 L 185.18555 24.992188 C 186.21255 24.992188 187.20602 24.858797 188.16602 24.591797 C 189.11902 24.318797 189.96427 23.913859 190.69727 23.380859 C 191.43727 22.840859 192.0268 22.1525 192.4668 21.3125 C 192.9138 20.4725 193.13672 19.491094 193.13672 18.371094 C 193.13672 17.464094 192.99027 16.669422 192.69727 15.982422 C 192.40427 15.289422 192.01711 14.697938 191.53711 14.210938 C 191.06411 13.717938 190.51648 13.321484 189.89648 13.021484 C 189.27648 12.714484 188.63933 12.491563 187.98633 12.351562 C 188.71333 12.144562 189.31965 11.847938 189.80664 11.460938 C 190.29964 11.073937 190.69609 10.621563 190.99609 10.101562 C 191.30309 9.5745625 191.52602 9.0008594 191.66602 8.3808594 C 191.80602 7.7608594 191.87695 7.1144063 191.87695 6.4414062 C 191.87695 5.2744063 191.69317 4.2809375 191.32617 3.4609375 C 190.96617 2.6479375 190.45034 1.9856562 189.77734 1.4726562 C 189.09734 0.95965625 188.28294 0.5845625 187.33594 0.3515625 C 186.39594 0.1185625 185.34278 0.001953125 184.17578 0.001953125 L 178.32617 0.001953125 z M 180.70703 2.171875 L 184.45703 2.171875 C 185.95003 2.171875 187.1627 2.5226562 188.0957 3.2226562 C 189.0287 3.9226562 189.49609 5.0513281 189.49609 6.6113281 C 189.49609 7.9913291 189.10894 9.13125 188.33594 10.03125 C 187.56894 10.92425 186.42625 11.371094 184.90625 11.371094 L 180.70703 11.371094 L 180.70703 2.171875 z M 155.78711 2.3125 L 159.91602 2.3125 C 161.54902 2.3125 163.01917 2.5745625 164.32617 3.1015625 C 165.63317 3.6215625 166.75255 4.3389521 167.68555 5.2519531 C 168.61855 6.1589531 169.33594 7.2391875 169.83594 8.4921875 C 170.34294 9.7391875 170.5957 11.08425 170.5957 12.53125 C 170.5957 14.11825 170.32711 15.540781 169.78711 16.800781 C 169.25411 18.060781 168.51341 19.128952 167.56641 20.001953 C 166.61941 20.874952 165.50933 21.544719 164.23633 22.011719 C 162.96933 22.478719 161.61302 22.710938 160.16602 22.710938 L 155.78711 22.710938 L 155.78711 2.3125 z M 180.70703 13.441406 L 184.45703 13.441406 C 185.25003 13.441406 186.02434 13.528172 186.77734 13.701172 C 187.53734 13.874172 188.21365 14.148484 188.80664 14.521484 C 189.40665 14.894484 189.87956 15.385188 190.22656 15.992188 C 190.57956 16.599187 190.75586 17.322109 190.75586 18.162109 C 190.75586 18.935109 190.60388 19.611406 190.29688 20.191406 C 189.99687 20.778406 189.58364 21.265344 189.05664 21.652344 C 188.52965 22.032344 187.9168 22.321484 187.2168 22.521484 C 186.5168 22.721484 185.76956 22.822266 184.97656 22.822266 L 180.70703 22.822266 L 180.70703 13.441406 z "
       inkscape:radius="-5e-07"
       sodipodi:type="inkscape:offset" />
    <path
       inkscape:export-ydpi="1227.8525"
       inkscape:export-xdpi="1227.8525"
       transform="translate(-1.0836048,-10.583156)"
       d="m 154.46094,10.585938 v 24.990234 h 7.02929 c 1.707,0 3.31708,-0.288328 4.83008,-0.861328 1.52,-0.573 2.85024,-1.39575 3.99024,-2.46875 1.147,-1.073 2.05747,-2.36786 2.73047,-3.88086 0.68,-1.52 1.01953,-3.222375 1.01953,-5.109375 0,-1.473 -0.24724,-2.960937 -0.74024,-4.460937 -0.487,-1.507 -1.2789,-2.867078 -2.3789,-4.080078 -1.093,-1.213 -2.51849,-2.205516 -4.27149,-2.978516 -1.747,-0.767 -3.88039,-1.15039 -6.40039,-1.15039 z m 24.94922,0 v 24.990234 h 6.85937 c 1.027,0 2.02047,-0.133391 2.98047,-0.400391 0.953,-0.273 1.79825,-0.677937 2.53125,-1.210937 0.74,-0.54 1.32953,-1.22836 1.76953,-2.06836 0.447,-0.84 0.66992,-1.821406 0.66992,-2.941406 0,-0.907 -0.14645,-1.701672 -0.43945,-2.388672 -0.293,-0.693 -0.68016,-1.284484 -1.16016,-1.771484 -0.473,-0.493 -1.02062,-0.889453 -1.64062,-1.189453 -0.62,-0.307 -1.25716,-0.529922 -1.91016,-0.669922 0.727,-0.207 1.33332,-0.503625 1.82031,-0.890625 0.493,-0.387 0.88946,-0.839375 1.18946,-1.359375 0.307,-0.527 0.52992,-1.100703 0.66992,-1.720703 0.14,-0.62 0.21094,-1.266453 0.21094,-1.939453 0,-1.167 -0.18378,-2.160469 -0.55078,-2.980469 -0.36,-0.813 -0.87583,-1.475281 -1.54883,-1.988281 -0.68,-0.513 -1.49441,-0.888094 -2.44141,-1.121094 -0.94,-0.233 -1.99315,-0.349609 -3.16015,-0.349609 z m 2.38086,2.169921 h 3.75 c 1.493,0 2.70567,0.350782 3.63867,1.050782 0.933,0.7 1.40039,1.828671 1.40039,3.388671 0,1.380001 -0.38716,2.519922 -1.16016,3.419922 -0.767,0.893 -1.90969,1.339844 -3.42969,1.339844 h -4.19921 z m -24.91993,0.140625 H 161 c 1.633,0 3.10316,0.262063 4.41016,0.789063 1.307,0.52 2.42637,1.23739 3.35937,2.150391 0.933,0.907 1.65039,1.987234 2.15039,3.240234 0.507,1.247 0.75977,2.592062 0.75977,4.039062 0,1.587 -0.2686,3.009532 -0.8086,4.269532 -0.533,1.26 -1.2737,2.328171 -2.2207,3.201172 -0.947,0.872999 -2.05708,1.542765 -3.33008,2.009765 -1.267,0.467 -2.62331,0.699219 -4.07031,0.699219 h -4.37891 z m 24.91993,11.128907 h 3.75 c 0.793,0 1.56731,0.08676 2.32031,0.259765 0.76,0.173 1.4363,0.447313 2.02929,0.820313 0.60001,0.373 1.07293,0.863703 1.41993,1.470703 0.353,0.607 0.52929,1.329922 0.52929,2.169922 0,0.773 -0.15198,1.449297 -0.45898,2.029297 -0.3,0.587 -0.71324,1.073937 -1.24024,1.460937 -0.52699,0.38 -1.13984,0.669141 -1.83984,0.869141 -0.7,0.2 -1.44723,0.300781 -2.24023,0.300781 h -4.26953 z"
       id="path9"
       style="white-space:pre;fill:#ffffff;fill-opacity:1"
       inkscape:original="M 154.46094 10.585938 L 154.46094 35.576172 L 161.49023 35.576172 C 163.19723 35.576172 164.80731 35.287844 166.32031 34.714844 C 167.84031 34.141844 169.17055 33.319094 170.31055 32.246094 C 171.45755 31.173094 172.36802 29.878234 173.04102 28.365234 C 173.72102 26.845234 174.06055 25.142859 174.06055 23.255859 C 174.06055 21.782859 173.81331 20.294922 173.32031 18.794922 C 172.83331 17.287922 172.04141 15.927844 170.94141 14.714844 C 169.84841 13.501844 168.42292 12.509328 166.66992 11.736328 C 164.92292 10.969328 162.78953 10.585938 160.26953 10.585938 L 154.46094 10.585938 z M 179.41016 10.585938 L 179.41016 35.576172 L 186.26953 35.576172 C 187.29653 35.576172 188.29 35.442781 189.25 35.175781 C 190.203 34.902781 191.04825 34.497844 191.78125 33.964844 C 192.52125 33.424844 193.11078 32.736484 193.55078 31.896484 C 193.99778 31.056484 194.2207 30.075078 194.2207 28.955078 C 194.2207 28.048078 194.07425 27.253406 193.78125 26.566406 C 193.48825 25.873406 193.10109 25.281922 192.62109 24.794922 C 192.14809 24.301922 191.60047 23.905469 190.98047 23.605469 C 190.36047 23.298469 189.72331 23.075547 189.07031 22.935547 C 189.79731 22.728547 190.40363 22.431922 190.89062 22.044922 C 191.38362 21.657922 191.78008 21.205547 192.08008 20.685547 C 192.38708 20.158547 192.61 19.584844 192.75 18.964844 C 192.89 18.344844 192.96094 17.698391 192.96094 17.025391 C 192.96094 15.858391 192.77716 14.864922 192.41016 14.044922 C 192.05016 13.231922 191.53433 12.569641 190.86133 12.056641 C 190.18133 11.543641 189.36692 11.168547 188.41992 10.935547 C 187.47992 10.702547 186.42677 10.585938 185.25977 10.585938 L 179.41016 10.585938 z M 181.79102 12.755859 L 185.54102 12.755859 C 187.03402 12.755859 188.24669 13.106641 189.17969 13.806641 C 190.11269 14.506641 190.58008 15.635312 190.58008 17.195312 C 190.58008 18.575313 190.19292 19.715234 189.41992 20.615234 C 188.65292 21.508234 187.51023 21.955078 185.99023 21.955078 L 181.79102 21.955078 L 181.79102 12.755859 z M 156.87109 12.896484 L 161 12.896484 C 162.633 12.896484 164.10316 13.158547 165.41016 13.685547 C 166.71716 14.205547 167.83653 14.922937 168.76953 15.835938 C 169.70253 16.742938 170.41992 17.823172 170.91992 19.076172 C 171.42692 20.323172 171.67969 21.668234 171.67969 23.115234 C 171.67969 24.702234 171.41109 26.124766 170.87109 27.384766 C 170.33809 28.644766 169.59739 29.712937 168.65039 30.585938 C 167.70339 31.458937 166.59331 32.128703 165.32031 32.595703 C 164.05331 33.062703 162.697 33.294922 161.25 33.294922 L 156.87109 33.294922 L 156.87109 12.896484 z M 181.79102 24.025391 L 185.54102 24.025391 C 186.33402 24.025391 187.10833 24.112156 187.86133 24.285156 C 188.62133 24.458156 189.29763 24.732469 189.89062 25.105469 C 190.49063 25.478469 190.96355 25.969172 191.31055 26.576172 C 191.66355 27.183172 191.83984 27.906094 191.83984 28.746094 C 191.83984 29.519094 191.68786 30.195391 191.38086 30.775391 C 191.08086 31.362391 190.66762 31.849328 190.14062 32.236328 C 189.61363 32.616328 189.00078 32.905469 188.30078 33.105469 C 187.60078 33.305469 186.85355 33.40625 186.06055 33.40625 L 181.79102 33.40625 L 181.79102 24.025391 z "
       inkscape:radius="0"
       sodipodi:type="inkscape:offset" />
    <path
       inkscape:export-ydpi="1227.8525"
       inkscape:export-xdpi="1227.8525"
       sodipodi:nodetypes="ccccc"
       inkscape:connector-curvature="0"
       id="path4768"
       d="m 0.03520197,0 c -0.00396,5.971058 -0.044565,49.477504 -0.033203,54.065033 H 8.4922342 c -0.01015,-4.186263 0.02924,-48.079529 0.0332,-54.059174 z"
       style="color:#000000;font-style:normal;font-variant:normal;font-weight:normal;font-stretch:normal;font-size:medium;line-height:normal;font-family:sans-serif;font-variant-ligatures:normal;font-variant-position:normal;font-variant-caps:normal;font-variant-numeric:normal;font-variant-alternates:normal;font-feature-settings:normal;text-indent:0;text-align:start;text-decoration:none;text-decoration-line:none;text-decoration-style:solid;text-decoration-color:#000000;letter-spacing:normal;word-spacing:normal;text-transform:none;writing-mode:lr-tb;direction:ltr;text-orientation:mixed;dominant-baseline:auto;baseline-shift:baseline;text-anchor:start;white-space:normal;shape-padding:0;clip-rule:nonzero;display:inline;overflow:visible;visibility:visible;opacity:1;isolation:auto;mix-blend-mode:normal;color-interpolation:sRGB;color-interpolation-filters:linearRGB;solid-color:#000000;solid-opacity:1;vector-effect:none;fill:#ffffff;fill-opacity:1;fill-rule:nonzero;stroke:none;stroke-width:8.48999977;stroke-linecap:butt;stroke-linejoin:miter;stroke-miterlimit:4;stroke-dasharray:none;stroke-dashoffset:0;stroke-opacity:1;color-rendering:auto;image-rendering:auto;shape-rendering:auto;text-rendering:auto;enable-background:accumulate" />
    <path
       inkscape:export-ydpi="1227.8525"
       inkscape:export-xdpi="1227.8525"
       sodipodi:nodetypes="ccccccccccscccccccccscc"
       inkscape:connector-curvature="0"
       id="path21"
       d="m 172.99847,30.469578 c -6.14928,-0.26923 -12.08089,0.0342 -16.99414,3.304688 -4.91325,3.27047 -7.65121,9.423125 -7.74414,17.728516 -0.14664,13.10356 -8.21419,18.247263 -16.19922,18.183593 -15.83587,0.16522 -16.82865,-16.122642 -20.42578,-23.826172 -3.07102,7.19082 -3.46081,13.158901 -10.36133,19.087891 -3.775157,3.04508 -9.076773,4.713606 -14.416013,4.722656 -5.33924,0.009 -10.19704,-1.579544 -14.3125,-4.652344 -7.37329,-5.974949 -7.565783,-11.116918 -10.595703,-18.824218 -3.0291,7.42896 -3.508986,12.952076 -10.791015,18.691406 -4.075825,3.121145 -9.712293,4.589802 -15.687002,5.372507 C 23.531135,71.822343 2.2200919,67.825567 2.2200919,67.825567 21.840574,73.594874 49.466516,83.123774 61.947689,65.391453 c 1.46187,2.37048 3.167107,4.52992 5.248047,6.21875 5.51885,4.47895 12.621781,6.562732 19.675781,6.550782 7.05401,-0.0119 14.172503,-2.120799 19.732423,-6.605469 1.94919,-1.57224 3.5706,-3.559083 5.00195,-5.720703 4.42585,7.83345 12.34779,12.275743 20.38672,12.339843 12.20621,0.0973 24.56844,-9.655685 24.75781,-26.578124 0.0751,-6.709111 1.66926,-9.231057 3.95704,-10.753907 2.28778,-1.52284 6.96257,-3.617555 10.72149,-4.629655 8.24663,-2.220431 25.44159,-3.026595 25.44159,-3.026595 0,0 -17.46136,-2.282847 -23.87207,-2.716797 z"
       style="color:#000000;font-style:normal;font-variant:normal;font-weight:normal;font-stretch:normal;font-size:medium;line-height:normal;font-family:sans-serif;font-variant-ligatures:normal;font-variant-position:normal;font-variant-caps:normal;font-variant-numeric:normal;font-variant-alternates:normal;font-feature-settings:normal;text-indent:0;text-align:start;text-decoration:none;text-decoration-line:none;text-decoration-style:solid;text-decoration-color:#000000;letter-spacing:normal;word-spacing:normal;text-transform:none;writing-mode:lr-tb;direction:ltr;text-orientation:mixed;dominant-baseline:auto;baseline-shift:baseline;text-anchor:start;white-space:normal;shape-padding:0;clip-rule:nonzero;display:inline;overflow:visible;visibility:visible;opacity:1;isolation:auto;mix-blend-mode:normal;color-interpolation:sRGB;color-interpolation-filters:linearRGB;solid-color:#000000;solid-opacity:1;vector-effect:none;fill:#ffffff;fill-opacity:1;fill-rule:nonzero;stroke:none;stroke-width:8.48999977;stroke-linecap:butt;stroke-linejoin:miter;stroke-miterlimit:4;stroke-dasharray:none;stroke-dashoffset:0;stroke-opacity:1;color-rendering:auto;image-rendering:auto;shape-rendering:auto;text-rendering:auto;enable-background:accumulate" />
    <path
       inkscape:export-ydpi="1227.8525"
       inkscape:export-xdpi="1227.8525"
       sodipodi:nodetypes="ccccccccccccccccccc"
       inkscape:connector-curvature="0"
       id="path23"
       d="m 67.147268,37.793564 c -0.137717,-8.164736 6.064498,-15.858017 14.030123,-17.56 4.928394,-1.039321 10.650948,0.110363 14.055054,4.025 0.378244,0.453415 0.783399,0.951766 0.783399,0.951766 l 0.086,-0.83692 c 0.0818,-1.206615 0.163609,-2.413231 0.245413,-3.619846 h 6.559993 v 33.44 h -6.879993 v -4.24 c -2.227078,3.248423 -6.282793,4.721506 -10.075141,5.004953 -6.305917,0.508876 -12.806799,-2.599991 -16.138549,-8.020314 -1.72259,-2.721582 -2.686777,-5.917705 -2.666299,-9.144639 z m 6.88,-0.4 c -0.122879,4.6465 3.074321,9.160845 7.584858,10.4075 4.711923,1.440271 10.411096,-0.350854 12.91974,-4.724941 2.778426,-4.653117 1.676545,-11.475913 -2.986935,-14.507716 -4.697674,-3.29314 -11.970859,-2.446631 -15.393288,2.298194 -1.398799,1.870387 -2.151541,4.191734 -2.124375,6.526963 z"
       style="white-space:pre;fill:#ffffff;fill-opacity:1" />
    <path
       d="M 128.00781,6.0703125 V 20.871094 h -3 v 6.080078 h 3 l -0.0156,15.308594 c -0.01,0.70697 -0.49276,1.010435 -0.72852,1.203125 -0.22355,0.18272 -0.43553,0.37809 -0.63476,0.58789 -2.6032,2.76776 -2.46941,7.12189 0.29882,9.72461 2.76831,2.60265 7.12245,2.467978 9.72461,-0.300782 2.60189,-2.76752 2.46812,-7.120136 -0.29882,-9.722656 -0.22614,-0.21219 -0.46671,-0.408499 -0.71875,-0.587891 -0.26368,-0.18768 -0.83684,-0.434949 -0.875,-1.130859 l 0.0469,-15.082031 h 5.97656 v -6.080078 h -5.97656 V 6.0703125 Z M 130.00195,8 c 0.96229,7.87e-5 1.92443,2.637e-4 2.88672,0 -4.6e-4,11.317147 0,22.634024 0,33.951172 0,0.94301 0.21888,1.712004 0.58594,2.126953 0.48954,0.553421 0.86996,0.669727 1.60937,1.248047 1.00872,0.788949 1.47023,2.099634 1.47266,3.501953 v 0.002 c 2.6e-4,2.702932 -2.19551,4.898692 -4.89844,4.898438 -2.70143,-7.03e-4 -4.89543,-2.195494 -4.89648,-4.896485 v -0.002 c 0.002,-1.373159 0.51179,-2.665226 1.48242,-3.507812 0.56062,-0.486672 0.92747,-0.707212 1.28906,-1.263672 0.31845,-0.490065 0.46875,-1.176166 0.46875,-2.111328 -3e-5,-11.315756 5e-5,-22.63151 0,-33.947266 z"
       inkscape:href="#path25"
       id="path861"
       style="white-space:pre;fill:#ffffff;fill-opacity:1"
       xlink:href="#path25"
       inkscape:original="M 128.00781 6.0703125 L 128.00781 20.871094 L 125.00781 20.871094 L 125.00781 26.951172 L 128.00781 26.951172 L 127.99219 42.259766 C 127.98219 42.966736 127.49943 43.270201 127.26367 43.462891 C 127.04012 43.645611 126.82814 43.840981 126.62891 44.050781 C 124.02571 46.818541 124.1595 51.172671 126.92773 53.775391 C 129.69604 56.378041 134.05018 56.243369 136.65234 53.474609 C 139.25423 50.707089 139.12046 46.354473 136.35352 43.751953 C 136.12738 43.539763 135.88681 43.343454 135.63477 43.164062 C 135.37109 42.976382 134.79793 42.729113 134.75977 42.033203 L 134.80664 26.951172 L 140.7832 26.951172 L 140.7832 20.871094 L 134.80664 20.871094 L 134.80664 6.0703125 L 128.00781 6.0703125 z M 130.00195 8 C 130.96424 8.0000787 131.92638 8.0002637 132.88867 8 C 132.88821 19.317147 132.88867 30.634024 132.88867 41.951172 C 132.88867 42.894182 133.10755 43.663176 133.47461 44.078125 C 133.96415 44.631546 134.34457 44.747852 135.08398 45.326172 C 136.0927 46.115121 136.55421 47.425806 136.55664 48.828125 L 136.55664 48.830078 C 136.5569 51.53301 134.36113 53.72877 131.6582 53.728516 C 128.95677 53.727813 126.76277 51.533022 126.76172 48.832031 L 126.76172 48.830078 C 126.76372 47.456919 127.27351 46.164852 128.24414 45.322266 C 128.80476 44.835594 129.17161 44.615054 129.5332 44.058594 C 129.85165 43.568529 130.00195 42.882428 130.00195 41.947266 C 130.00192 30.63151 130.002 19.315756 130.00195 8 z "
       inkscape:radius="0"
       sodipodi:type="inkscape:offset" />
    <path
       sodipodi:nodetypes="ccccccccccccccccccccccccccccccccc"
       inkscape:connector-curvature="0"
       id="path25"
       d="M 128.00781,6.0703125 V 20.871094 h -3 v 6.080078 h 3 l -0.0156,15.308594 c -0.01,0.70697 -0.49276,1.010435 -0.72852,1.203125 -0.22355,0.18272 -0.43553,0.37809 -0.63476,0.58789 -2.6032,2.76776 -2.46941,7.12189 0.29882,9.72461 2.76831,2.60265 7.12245,2.467978 9.72461,-0.300782 2.60189,-2.76752 2.46812,-7.120136 -0.29882,-9.722656 -0.22614,-0.21219 -0.46671,-0.408499 -0.71875,-0.587891 -0.26368,-0.18768 -0.83684,-0.434949 -0.875,-1.130859 l 0.0469,-15.082031 h 5.97656 v -6.080078 h -5.97656 V 6.0703125 Z m 4.88104,1.9294161 c -4.6e-4,11.3171474 -1.9e-4,22.6342954 -1.9e-4,33.9514434 0,0.94301 0.21888,1.712004 0.58594,2.126953 0.48954,0.553421 0.86996,0.669727 1.60937,1.248047 1.00872,0.788949 1.47023,2.099634 1.47266,3.501953 v 0.002 c 2.6e-4,2.702932 -2.19551,4.898692 -4.89844,4.898438 -2.70143,-7.03e-4 -4.89543,-2.195494 -4.89648,-4.896485 v -0.002 c 0.002,-1.373159 0.51179,-2.665226 1.48242,-3.507812 0.56062,-0.486672 0.92747,-0.707212 1.28906,-1.263672 0.31845,-0.490065 0.46875,-1.176166 0.46875,-2.111328 -3e-5,-11.315756 1e-4,-22.631511 5e-5,-33.9472667 0.96229,7.87e-5 1.92457,-7e-6 2.88686,-2.707e-4 z"
       style="white-space:pre;fill:#ffffff;fill-opacity:1" />
    <g
       style="fill:#ffffff"
       inkscape:export-ydpi="1227.8525"
       inkscape:export-xdpi="1227.8525"
       transform="matrix(0.62191987,0,0,1,54.544625,-10.583156)"
       id="g4733">
      <rect
         transform="scale(1,-1)"
         style="fill:#ffffff;fill-opacity:1;stroke-width:0.7302075"
         id="rect4502-9-5-8"
         width="5.7246914"
         height="1.8636889"
         x="132.9404"
         y="-28.525658" />
      <rect
         y="-18.526758"
         x="132.9404"
         height="1.8636889"
         width="5.7246914"
         id="rect918"
         style="fill:#ffffff;fill-opacity:1;stroke-width:0.7302075"
         transform="scale(1,-1)" />
      <rect
         transform="scale(1,-1)"
         style="fill:#ffffff;fill-opacity:1;stroke-width:0.5981766"
         id="rect920"
         width="3.841655"
         height="1.8636889"
         x="132.9404"
         y="-23.468693" />
      <rect
         y="-42.3601"
         x="132.65616"
         height="1.8636889"
         width="6.0089321"
         id="rect918-5"
         style="fill:#ffffff;fill-opacity:1;stroke-width:0.74811596"
         transform="scale(1,-1)" />
      <rect
         transform="scale(1,-1)"
         style="fill:#ffffff;fill-opacity:1;stroke-width:0.5981766"
         id="rect920-9"
         width="3.841655"
         height="1.8636889"
         x="132.65616"
         y="-47.302032" />
    </g>
  </g>
</svg>
