<?xml version="1.0" encoding="utf-8"?>
<svg viewBox="0 0 500 500" xmlns="http://www.w3.org/2000/svg" xmlns:bx="https://boxy-svg.com">
  <defs>
    <pattern id="pattern-0" x="0" y="0" width="20" height="20" patternUnits="userSpaceOnUse" viewBox="0 0 100 100">
      <path d="M 0 0 L 50 0 L 50 100 L 0 100 Z" style="fill: black;"/>
    </pattern>
    <bx:guide x="237.516" y="120.957" angle="90"/>
    <bx:guide x="185.035" y="78.579" angle="0"/>
    <bx:guide x="234.929" y="89.913" angle="0"/>
    <bx:guide x="284.822" y="97.304" angle="0"/>
    <bx:guide x="334.838" y="99.218" angle="0"/>
    <bx:guide x="260.789" y="147.836" angle="90"/>
    <bx:guide x="284.724" y="151.042" angle="90"/>
    <bx:guide x="214.099" y="123.75" angle="90"/>
  </defs>
  <path d="M 63.185 82.982 L 63.185 82.982 L 63.185 82.982 C 63.932 83.889 64.638 84.755 65.305 85.582 L 65.305 85.582 L 65.305 85.582 C 65.972 86.409 66.652 87.275 67.345 88.182 L 67.345 88.182 L 67.345 88.182 C 65.852 89.355 64.172 90.289 62.305 90.982 L 62.305 90.982 L 62.305 90.982 C 60.438 91.675 58.412 92.022 56.225 92.022 L 56.225 92.022 L 56.225 92.022 C 53.772 92.022 51.465 91.555 49.305 90.622 L 49.305 90.622 L 49.305 90.622 C 47.145 89.689 45.265 88.422 43.665 86.822 L 43.665 86.822 L 43.665 86.822 C 42.065 85.222 40.798 83.355 39.865 81.222 L 39.865 81.222 L 39.865 81.222 C 38.932 79.089 38.465 76.822 38.465 74.422 L 38.465 74.422 L 38.465 74.422 C 38.465 72.022 38.932 69.755 39.865 67.622 L 39.865 67.622 L 39.865 67.622 C 40.798 65.489 42.065 63.635 43.665 62.062 L 43.665 62.062 L 43.665 62.062 C 45.265 60.489 47.145 59.235 49.305 58.302 L 49.305 58.302 L 49.305 58.302 C 51.465 57.369 53.772 56.902 56.225 56.902 L 56.225 56.902 L 56.225 56.902 C 58.465 56.902 60.532 57.249 62.425 57.942 L 62.425 57.942 L 62.425 57.942 C 64.318 58.635 66.038 59.569 67.585 60.742 L 67.585 60.742 L 63.185 65.942 L 63.185 65.942 C 62.278 65.195 61.238 64.622 60.065 64.222 L 60.065 64.222 L 60.065 64.222 C 58.892 63.822 57.612 63.622 56.225 63.622 L 56.225 63.622 L 56.225 63.622 C 54.625 63.622 53.158 63.902 51.825 64.462 L 51.825 64.462 L 51.825 64.462 C 50.492 65.022 49.332 65.782 48.345 66.742 L 48.345 66.742 L 48.345 66.742 C 47.358 67.702 46.598 68.835 46.065 70.142 L 46.065 70.142 L 46.065 70.142 C 45.532 71.449 45.265 72.875 45.265 74.422 L 45.265 74.422 L 45.265 74.422 C 45.265 75.969 45.532 77.395 46.065 78.702 L 46.065 78.702 L 46.065 78.702 C 46.598 80.009 47.358 81.155 48.345 82.142 L 48.345 82.142 L 48.345 82.142 C 49.332 83.129 50.492 83.902 51.825 84.462 L 51.825 84.462 L 51.825 84.462 C 53.158 85.022 54.625 85.302 56.225 85.302 L 56.225 85.302 L 56.225 85.302 C 57.612 85.302 58.892 85.102 60.065 84.702 L 60.065 84.702 L 60.065 84.702 C 61.238 84.302 62.278 83.729 63.185 82.982 Z" transform="matrix(1, 0, 0, 1, 0, 0)" style="white-space: pre;"/>
  <path d="M 181.333 62.939 L 181.333 37.949 L 187.143 37.949 L 187.143 37.949 C 189.663 37.949 191.796 38.332 193.543 39.099 L 193.543 39.099 L 193.543 39.099 C 195.296 39.872 196.72 40.866 197.813 42.079 L 197.813 42.079 L 197.813 42.079 C 198.913 43.292 199.706 44.652 200.193 46.159 L 200.193 46.159 L 200.193 46.159 C 200.686 47.659 200.933 49.146 200.933 50.619 L 200.933 50.619 L 200.933 50.619 C 200.933 52.506 200.593 54.209 199.913 55.729 L 199.913 55.729 L 199.913 55.729 C 199.24 57.242 198.33 58.536 197.183 59.609 L 197.183 59.609 L 197.183 59.609 C 196.043 60.682 194.713 61.506 193.193 62.079 L 193.193 62.079 L 193.193 62.079 C 191.68 62.652 190.07 62.939 188.363 62.939 L 188.363 62.939 L 181.333 62.939 Z M 183.743 60.659 L 188.123 60.659 L 188.123 60.659 C 189.57 60.659 190.926 60.426 192.193 59.959 L 192.193 59.959 L 192.193 59.959 C 193.466 59.492 194.576 58.822 195.523 57.949 L 195.523 57.949 L 195.523 57.949 C 196.47 57.076 197.21 56.009 197.743 54.749 L 197.743 54.749 L 197.743 54.749 C 198.283 53.489 198.553 52.066 198.553 50.479 L 198.553 50.479 L 198.553 50.479 C 198.553 49.032 198.3 47.686 197.793 46.439 L 197.793 46.439 L 197.793 46.439 C 197.293 45.186 196.576 44.106 195.643 43.199 L 195.643 43.199 L 195.643 43.199 C 194.71 42.286 193.59 41.569 192.283 41.049 L 192.283 41.049 L 192.283 41.049 C 190.976 40.522 189.506 40.259 187.873 40.259 L 187.873 40.259 L 183.743 40.259 L 183.743 60.659 ZM 212.413 40.119 L 208.663 40.119 L 208.663 49.319 L 212.863 49.319 L 212.863 49.319 C 214.383 49.319 215.526 48.872 216.293 47.979 L 216.293 47.979 L 216.293 47.979 C 217.066 47.079 217.453 45.939 217.453 44.559 L 217.453 44.559 L 217.453 44.559 C 217.453 42.999 216.986 41.869 216.053 41.169 L 216.053 41.169 L 216.053 41.169 C 215.12 40.469 213.906 40.119 212.413 40.119 L 212.413 40.119 Z M 212.413 51.389 L 208.663 51.389 L 208.663 60.769 L 212.933 60.769 L 212.933 60.769 C 213.726 60.769 214.473 60.669 215.173 60.469 L 215.173 60.469 L 215.173 60.469 C 215.873 60.269 216.486 59.979 217.013 59.599 L 217.013 59.599 L 217.013 59.599 C 217.54 59.212 217.953 58.726 218.253 58.139 L 218.253 58.139 L 218.253 58.139 C 218.56 57.559 218.713 56.882 218.713 56.109 L 218.713 56.109 L 218.713 56.109 C 218.713 55.269 218.536 54.546 218.183 53.939 L 218.183 53.939 L 218.183 53.939 C 217.836 53.332 217.363 52.842 216.763 52.469 L 216.763 52.469 L 216.763 52.469 C 216.17 52.096 215.493 51.822 214.733 51.649 L 214.733 51.649 L 214.733 51.649 C 213.98 51.476 213.206 51.389 212.413 51.389 L 212.413 51.389 Z M 213.143 62.939 L 206.283 62.939 L 206.283 37.949 L 212.133 37.949 L 212.133 37.949 C 213.3 37.949 214.353 38.066 215.293 38.299 L 215.293 38.299 L 215.293 38.299 C 216.24 38.532 217.053 38.906 217.733 39.419 L 217.733 39.419 L 217.733 39.419 C 218.406 39.932 218.923 40.596 219.283 41.409 L 219.283 41.409 L 219.283 41.409 C 219.65 42.229 219.833 43.222 219.833 44.389 L 219.833 44.389 L 219.833 44.389 C 219.833 45.062 219.763 45.709 219.623 46.329 L 219.623 46.329 L 219.623 46.329 C 219.483 46.949 219.26 47.522 218.953 48.049 L 218.953 48.049 L 218.953 48.049 C 218.653 48.569 218.256 49.022 217.763 49.409 L 217.763 49.409 L 217.763 49.409 C 217.276 49.796 216.67 50.092 215.943 50.299 L 215.943 50.299 L 215.943 50.299 C 216.596 50.439 217.233 50.662 217.853 50.969 L 217.853 50.969 L 217.853 50.969 C 218.473 51.269 219.02 51.666 219.493 52.159 L 219.493 52.159 L 219.493 52.159 C 219.973 52.646 220.36 53.236 220.653 53.929 L 220.653 53.929 L 220.653 53.929 C 220.946 54.616 221.093 55.412 221.093 56.319 L 221.093 56.319 L 221.093 56.319 C 221.093 57.439 220.87 58.419 220.423 59.259 L 220.423 59.259 L 220.423 59.259 C 219.983 60.099 219.393 60.789 218.653 61.329 L 218.653 61.329 L 218.653 61.329 C 217.92 61.862 217.076 62.266 216.123 62.539 L 216.123 62.539 L 216.123 62.539 C 215.163 62.806 214.17 62.939 213.143 62.939 L 213.143 62.939 Z" transform="matrix(1, 0, 0, 1, 0, 0)" style="white-space: pre;"/>
  <path d="M 83.584 146.893 L 83.584 146.893" style="stroke: rgb(0, 0, 0); fill: rgb(216, 216, 216);"/>
  <path d="M 406.937 146.311 L 406.937 146.311" style="stroke: rgb(0, 0, 0); fill: rgb(216, 216, 216);"/>
  <path d="M 125.457 167.538 L 125.457 167.538" style="stroke: rgb(0, 0, 0); fill: rgb(216, 216, 216);"/>
  <path d="M 92.889 135.552 L 92.889 135.552" style="stroke: rgb(0, 0, 0); fill: rgb(216, 216, 216);"/>
  <path d="M -22.843 -49.096 L -22.843 -49.096" style="stroke: rgb(0, 0, 0); fill: rgb(216, 216, 216);"/>
  <path style="stroke: rgb(0, 0, 0); stroke-width: 8.49; fill: none;" d="M 25.153 27.367 C 25.149 33.407 25.108 85.918 25.12 89.312 C 25.227 119.622 77.772 119.444 78.093 89.115 C 78.103 88.16 78.262 88.177 78.249 89.393 C 77.928 119.395 127.608 119.347 127.715 89.273 C 127.722 87.36 128.247 87.787 128.22 89.084 C 127.603 119.29 168.126 119.522 168.462 89.496 C 168.798 59.467 202.449 80.159 227.952 72.882"/>
  <path d="M 83.457 75.74 L 83.457 75.74 L 83.457 75.74 C 83.457 73.287 83.924 70.98 84.857 68.82 L 84.857 68.82 L 84.857 68.82 C 85.79 66.66 87.057 64.767 88.657 63.14 L 88.657 63.14 L 88.657 63.14 C 90.257 61.513 92.11 60.22 94.217 59.26 L 94.217 59.26 L 94.217 59.26 C 96.324 58.3 98.577 57.82 100.977 57.82 L 100.977 57.82 L 100.977 57.82 C 102.577 57.82 104.044 58.02 105.377 58.42 L 105.377 58.42 L 105.377 58.42 C 106.71 58.82 107.857 59.313 108.817 59.9 L 108.817 59.9 L 108.817 59.9 C 109.777 60.487 110.55 61.1 111.137 61.74 L 111.137 61.74 L 111.137 61.74 C 111.724 62.38 112.124 62.94 112.337 63.42 L 112.337 63.42 L 112.657 58.7 L 119.217 58.7 L 119.217 92.14 L 112.337 92.14 L 112.337 87.9 L 112.337 87.9 C 112.07 88.327 111.644 88.833 111.057 89.42 L 111.057 89.42 L 111.057 89.42 C 110.47 90.007 109.71 90.553 108.777 91.06 L 108.777 91.06 L 108.777 91.06 C 107.844 91.567 106.737 92.007 105.457 92.38 L 105.457 92.38 L 105.457 92.38 C 104.177 92.753 102.71 92.94 101.057 92.94 L 101.057 92.94 L 101.057 92.94 C 98.497 92.94 96.137 92.473 93.977 91.54 L 93.977 91.54 L 93.977 91.54 C 91.817 90.607 89.964 89.353 88.417 87.78 L 88.417 87.78 L 88.417 87.78 C 86.87 86.207 85.657 84.38 84.777 82.3 L 84.777 82.3 L 84.777 82.3 C 83.897 80.22 83.457 78.033 83.457 75.74 Z M 90.337 75.34 L 90.337 75.34 L 90.337 75.34 C 90.337 76.887 90.617 78.327 91.177 79.66 L 91.177 79.66 L 91.177 79.66 C 91.737 80.993 92.497 82.14 93.457 83.1 L 93.457 83.1 L 93.457 83.1 C 94.417 84.06 95.564 84.82 96.897 85.38 L 96.897 85.38 L 96.897 85.38 C 98.23 85.94 99.697 86.22 101.297 86.22 L 101.297 86.22 L 101.297 86.22 C 102.897 86.22 104.377 85.94 105.737 85.38 L 105.737 85.38 L 105.737 85.38 C 107.097 84.82 108.27 84.047 109.257 83.06 L 109.257 83.06 L 109.257 83.06 C 110.244 82.073 111.004 80.927 111.537 79.62 L 111.537 79.62 L 111.537 79.62 C 112.07 78.313 112.337 76.887 112.337 75.34 L 112.337 75.34 L 112.337 75.34 C 112.337 73.793 112.07 72.367 111.537 71.06 L 111.537 71.06 L 111.537 71.06 C 111.004 69.753 110.244 68.62 109.257 67.66 L 109.257 67.66 L 109.257 67.66 C 108.27 66.7 107.097 65.94 105.737 65.38 L 105.737 65.38 L 105.737 65.38 C 104.377 64.82 102.897 64.54 101.297 64.54 L 101.297 64.54 L 101.297 64.54 C 99.697 64.54 98.23 64.82 96.897 65.38 L 96.897 65.38 L 96.897 65.38 C 95.564 65.94 94.417 66.7 93.457 67.66 L 93.457 67.66 L 93.457 67.66 C 92.497 68.62 91.737 69.753 91.177 71.06 L 91.177 71.06 L 91.177 71.06 C 90.617 72.367 90.337 73.793 90.337 75.34 Z" transform="matrix(1, 0, 0, 1, 0, 0)" style="white-space: pre;"/>
  <path d="M 144.777 58.818 L 144.777 44.018 L 151.577 44.018 L 151.577 58.818 L 160.537 58.818 L 160.537 64.898 L 151.577 64.898 L 151.577 92.178 L 144.777 92.178 L 144.777 64.898 L 138.777 64.898 L 138.777 58.818 L 144.777 58.818 Z" transform="matrix(1, 0, 0, 1, 0, 0)" style="white-space: pre;"/>
  <ellipse style="" transform="matrix(-0.685028, 0.728515, -0.728519, -0.685027, 229.579079, 57.386278)" cx="76.966" cy="39.045" rx="6.879" ry="6.879"/>
</svg>