<?xml version="1.0" encoding="UTF-8" standalone="no"?>
<svg
   xmlns:bx="https://boxy-svg.com"
   xmlns:dc="http://purl.org/dc/elements/1.1/"
   xmlns:cc="http://creativecommons.org/ns#"
   xmlns:rdf="http://www.w3.org/1999/02/22-rdf-syntax-ns#"
   xmlns:svg="http://www.w3.org/2000/svg"
   xmlns="http://www.w3.org/2000/svg"
   xmlns:sodipodi="http://sodipodi.sourceforge.net/DTD/sodipodi-0.dtd"
   xmlns:inkscape="http://www.inkscape.org/namespaces/inkscape"
   viewBox="0 0 193.11957 88.834247"
   version="1.1"
   id="svg29"
   sodipodi:docname="logo.svg"
   inkscape:version="0.92.1 r15371"
   width="193.11957"
   height="88.834244"
   inkscape:export-filename="D:\git\joseph\champy-db\client\res\logo.png"
   inkscape:export-xdpi="497.10559"
   inkscape:export-ydpi="497.10559">
  <metadata
     id="metadata33">
    <rdf:RDF>
      <cc:Work
         rdf:about="">
        <dc:format>image/svg+xml</dc:format>
        <dc:type
           rdf:resource="http://purl.org/dc/dcmitype/StillImage" />
        <dc:title></dc:title>
      </cc:Work>
    </rdf:RDF>
  </metadata>
  <sodipodi:namedview
     pagecolor="#ffffff"
     bordercolor="#666666"
     borderopacity="1"
     objecttolerance="10"
     gridtolerance="10"
     guidetolerance="10"
     inkscape:pageopacity="0"
     inkscape:pageshadow="2"
     inkscape:window-width="2560"
     inkscape:window-height="1017"
     id="namedview31"
     showgrid="false"
     showguides="true"
     inkscape:guide-bbox="true"
     inkscape:zoom="4"
     inkscape:cx="58.65692"
     inkscape:cy="24.774099"
     inkscape:window-x="-8"
     inkscape:window-y="1072"
     inkscape:window-maximized="1"
     inkscape:current-layer="svg29"
     fit-margin-top="0"
     fit-margin-left="0"
     fit-margin-right="0"
     fit-margin-bottom="0" />
  <defs
     id="defs5">
    <pattern
       id="pattern-0"
       x="0"
       y="0"
       width="20"
       height="20"
       patternUnits="userSpaceOnUse"
       viewBox="0 0 100 100">
      <path
         d="M 0 0 L 50 0 L 50 100 L 0 100 Z"
         style="fill: black;"
         id="path2" />
    </pattern>
    <bx:guide
       x="237.516"
       y="120.957"
       angle="90" />
    <bx:guide
       x="185.035"
       y="78.579"
       angle="0" />
    <bx:guide
       x="234.929"
       y="89.913"
       angle="0" />
    <bx:guide
       x="284.822"
       y="97.304"
       angle="0" />
    <bx:guide
       x="334.838"
       y="99.218"
       angle="0" />
    <bx:guide
       x="260.789"
       y="147.836"
       angle="90" />
    <bx:guide
       x="284.724"
       y="151.042"
       angle="90" />
    <bx:guide
       x="214.099"
       y="123.75"
       angle="90" />
  </defs>
  <g
     id="g55"
     style="fill:#313131;fill-opacity:1"
     inkscape:export-xdpi="497.10559"
     inkscape:export-ydpi="497.10559">
    <path
       inkscape:connector-curvature="0"
       id="path7"
       style="white-space:pre;fill:#313131;fill-opacity:1"
       d="m 41.782047,55.61872 v 0 0 c 0.747,0.907 1.453,1.773 2.12,2.6 v 0 0 c 0.667,0.827 1.347,1.693 2.04,2.6 v 0 0 c -1.493,1.173 -3.173,2.107 -5.04,2.8 v 0 0 c -1.867,0.693 -3.893,1.04 -6.08,1.04 v 0 0 c -2.453,0 -4.76,-0.467 -6.92,-1.4 v 0 0 c -2.16,-0.933 -4.04,-2.2 -5.64,-3.8 v 0 0 c -1.6,-1.6 -2.867,-3.467 -3.8,-5.6 v 0 0 c -0.933002,-2.133 -1.400002,-4.4 -1.400002,-6.8 v 0 0 c 0,-2.4 0.467,-4.667 1.400002,-6.8 v 0 0 c 0.933,-2.133 2.2,-3.987 3.8,-5.56 v 0 0 c 1.6,-1.573 3.48,-2.827 5.64,-3.76 v 0 0 c 2.16,-0.933 4.467,-1.4 6.92,-1.4 v 0 0 c 2.24,0 4.307,0.347 6.2,1.04 v 0 0 c 1.893,0.693 3.613,1.627 5.16,2.8 v 0 l -4.4,5.2 v 0 c -0.907,-0.747 -1.947,-1.32 -3.12,-1.72 v 0 0 c -1.173,-0.4 -2.453,-0.6 -3.84,-0.6 v 0 0 c -1.6,0 -3.067,0.28 -4.4,0.84 v 0 0 c -1.333,0.56 -2.493,1.32 -3.48,2.28 v 0 0 c -0.987,0.96 -1.747,2.093 -2.28,3.4 v 0 0 c -0.533,1.307 -0.8,2.733 -0.8,4.28 v 0 0 c 0,1.547 0.267,2.973 0.8,4.28 v 0 0 c 0.533,1.307 1.293,2.453 2.28,3.44 v 0 0 c 0.987,0.987 2.147,1.76 3.48,2.32 v 0 0 c 1.333,0.56 2.8,0.84 4.4,0.84 v 0 0 c 1.387,0 2.667,-0.2 3.84,-0.6 v 0 0 c 1.173,-0.4 2.213,-0.973 3.12,-1.72 z" />
    <path
       inkscape:connector-curvature="0"
       id="path9"
       style="white-space:pre;fill:#313131;fill-opacity:1"
       d="m 148.46038,35.57572 v -24.99 h 5.81 v 0 c 2.52,0 4.653,0.383 6.4,1.15 v 0 0 c 1.753,0.773 3.177,1.767 4.27,2.98 v 0 0 c 1.1,1.213 1.893,2.573 2.38,4.08 v 0 0 c 0.493,1.5 0.74,2.987 0.74,4.46 v 0 0 c 0,1.887 -0.34,3.59 -1.02,5.11 v 0 0 c -0.673,1.513 -1.583,2.807 -2.73,3.88 v 0 0 c -1.14,1.073 -2.47,1.897 -3.99,2.47 v 0 0 c -1.513,0.573 -3.123,0.86 -4.83,0.86 v 0 z m 2.41,-2.28 h 4.38 v 0 c 1.447,0 2.803,-0.233 4.07,-0.7 v 0 0 c 1.273,-0.467 2.383,-1.137 3.33,-2.01 v 0 0 c 0.947,-0.873 1.687,-1.94 2.22,-3.2 v 0 0 c 0.54,-1.26 0.81,-2.683 0.81,-4.27 v 0 0 c 0,-1.447 -0.253,-2.793 -0.76,-4.04 v 0 0 c -0.5,-1.253 -1.217,-2.333 -2.15,-3.24 v 0 0 c -0.933,-0.913 -2.053,-1.63 -3.36,-2.15 v 0 0 c -1.307,-0.527 -2.777,-0.79 -4.41,-0.79 v 0 h -4.13 z m 28.67,-20.54 h -3.75 v 9.2 h 4.2 v 0 c 1.52,0 2.663,-0.447 3.43,-1.34 v 0 0 c 0.773,-0.9 1.16,-2.04 1.16,-3.42 v 0 0 c 0,-1.56 -0.467,-2.69 -1.4,-3.39 v 0 0 c -0.933,-0.7 -2.147,-1.05 -3.64,-1.05 z m 0,11.27 h -3.75 v 9.38 h 4.27 v 0 c 0.793,0 1.54,-0.1 2.24,-0.3 v 0 0 c 0.7,-0.2 1.313,-0.49 1.84,-0.87 v 0 0 c 0.527,-0.387 0.94,-0.873 1.24,-1.46 v 0 0 c 0.307,-0.58 0.46,-1.257 0.46,-2.03 v 0 0 c 0,-0.84 -0.177,-1.563 -0.53,-2.17 v 0 0 c -0.347,-0.607 -0.82,-1.097 -1.42,-1.47 v 0 0 c -0.593,-0.373 -1.27,-0.647 -2.03,-0.82 v 0 0 c -0.753,-0.173 -1.527,-0.26 -2.32,-0.26 z m 0.73,11.55 h -6.86 v -24.99 h 5.85 v 0 c 1.167,0 2.22,0.117 3.16,0.35 v 0 0 c 0.947,0.233 1.76,0.607 2.44,1.12 v 0 0 c 0.673,0.513 1.19,1.177 1.55,1.99 v 0 0 c 0.367,0.82 0.55,1.813 0.55,2.98 v 0 0 c 0,0.673 -0.07,1.32 -0.21,1.94 v 0 0 c -0.14,0.62 -0.363,1.193 -0.67,1.72 v 0 0 c -0.3,0.52 -0.697,0.973 -1.19,1.36 v 0 0 c -0.487,0.387 -1.093,0.683 -1.82,0.89 v 0 0 c 0.653,0.14 1.29,0.363 1.91,0.67 v 0 0 c 0.62,0.3 1.167,0.697 1.64,1.19 v 0 0 c 0.48,0.487 0.867,1.077 1.16,1.77 v 0 0 c 0.293,0.687 0.44,1.483 0.44,2.39 v 0 0 c 0,1.12 -0.223,2.1 -0.67,2.94 v 0 0 c -0.44,0.84 -1.03,1.53 -1.77,2.07 v 0 0 c -0.733,0.533 -1.577,0.937 -2.53,1.21 v 0 0 c -0.96,0.267 -1.953,0.4 -2.98,0.4 z" />
    <path
       sodipodi:nodetypes="ccccccscccccssccsscccccccccsccc"
       inkscape:connector-curvature="0"
       id="path21"
       d="m 0.03557919,0 c -0.004,6.03709 -0.04587,58.3799 -0.0332,61.96289 0.03108,8.80401 4.09422401,15.91949 9.94726601,20.38281 5.8530408,4.46333 13.3107318,6.51461 20.7187518,6.48829 7.40802,-0.0263 14.87001,-2.13079 20.73633,-6.62305 2.20544,-1.68887 4.03955,-3.85574 5.62695,-6.23633 1.46187,2.37048 3.16711,4.52992 5.24805,6.21875 5.51885,4.47895 12.621769,6.56273 19.675769,6.55078 7.05401,-0.0119 14.17252,-2.1208 19.732434,-6.60547 1.94919,-1.57224 3.5706,-3.55908 5.00195,-5.7207 4.42585,7.83345 12.34779,12.27574 20.38672,12.33984 12.20621,0.0973 24.56844,-9.65568 24.75781,-26.57812 0.0751,-6.70911 1.66925,-9.23106 3.95703,-10.75391 2.28778,-1.52284 6.42658,-2.13114 11.91992,-1.89062 10.9867,0.48103 11.16209,2.38138 25.40821,-1.68359 l -2.33008,-8.16406 c -11.25688,3.21202 -10.40848,1.9037 -22.70703,1.36523 -6.14928,-0.26923 -12.08089,0.0342 -16.99414,3.30469 -4.91325,3.27047 -7.65121,9.42312 -7.74414,17.72851 -0.14664,13.10356 -8.21419,18.24726 -16.19922,18.18359 -15.83587,0.16522 -16.82865,-16.12268 -20.42578,-23.82621 -3.07102,7.19082 -3.46082,13.1589 -10.361334,19.08789 -3.77516,3.04508 -9.07678,4.71361 -14.41602,4.72266 -5.33924,0.009 -10.197029,-1.57955 -14.312489,-4.65235 -7.37329,-5.97495 -7.56579,-11.11692 -10.59571,-18.82422 -3.0291,7.42896 -3.50898,12.95207 -10.79101,18.6914 -4.0795,3.12396 -9.82179,4.85641 -15.60352,4.87695 -5.78173,0.0206 -11.50174,-1.67174 -15.541016,-4.75195 -4.039271,-3.0802 -6.5830478,-7.30916 -6.6054688,-13.66015 -0.01133,-3.20501 0.0292,-55.88482 0.0332,-61.92774 z"
       style="color:#000000;font-style:normal;font-variant:normal;font-weight:normal;font-stretch:normal;font-size:medium;line-height:normal;font-family:sans-serif;font-variant-ligatures:normal;font-variant-position:normal;font-variant-caps:normal;font-variant-numeric:normal;font-variant-alternates:normal;font-feature-settings:normal;text-indent:0;text-align:start;text-decoration:none;text-decoration-line:none;text-decoration-style:solid;text-decoration-color:#000000;letter-spacing:normal;word-spacing:normal;text-transform:none;writing-mode:lr-tb;direction:ltr;text-orientation:mixed;dominant-baseline:auto;baseline-shift:baseline;text-anchor:start;white-space:normal;shape-padding:0;clip-rule:nonzero;display:inline;overflow:visible;visibility:visible;opacity:1;isolation:auto;mix-blend-mode:normal;color-interpolation:sRGB;color-interpolation-filters:linearRGB;solid-color:#000000;solid-opacity:1;vector-effect:none;fill:#313131;fill-opacity:1;fill-rule:nonzero;stroke:none;stroke-width:8.48999977;stroke-linecap:butt;stroke-linejoin:miter;stroke-miterlimit:4;stroke-dasharray:none;stroke-dashoffset:0;stroke-opacity:1;color-rendering:auto;image-rendering:auto;shape-rendering:auto;text-rendering:auto;enable-background:accumulate" />
    <path
       inkscape:connector-curvature="0"
       id="path23"
       style="white-space:pre;fill:#313131;fill-opacity:1"
       d="m 62.230827,48.37672 v 0 0 c 0,-2.453 0.467,-4.76 1.4,-6.92 v 0 0 c 0.933,-2.16 2.2,-4.053 3.8,-5.68 v 0 0 c 1.6,-1.627 3.453,-2.92 5.56,-3.88 v 0 0 c 2.106999,-0.96 4.359999,-1.44 6.759989,-1.44 v 0 0 c 1.6,0 3.067,0.2 4.4,0.6 v 0 0 c 1.333,0.4 2.48,0.893 3.44,1.48 v 0 0 c 0.96,0.587 1.733,1.2 2.32,1.84 v 0 0 c 0.587,0.64 0.987,1.2 1.2,1.68 v 0 l 0.32,-4.72 h 6.56 v 33.44 h -6.88 v -4.24 0 c -0.267,0.427 -0.693,0.933 -1.28,1.52 v 0 0 c -0.587,0.587 -1.347,1.133 -2.28,1.64 v 0 0 c -0.933,0.507 -2.04,0.947 -3.32,1.32 v 0 0 c -1.28,0.373 -2.747,0.56 -4.4,0.56 v 0 0 c -2.55999,0 -4.91999,-0.467 -7.079989,-1.4 v 0 0 c -2.16,-0.933 -4.013,-2.187 -5.56,-3.76 v 0 0 c -1.547,-1.573 -2.76,-3.4 -3.64,-5.48 v 0 0 c -0.88,-2.08 -1.32,-4.267 -1.32,-6.56 z m 6.88,-0.4 v 0 0 c 0,1.547 0.28,2.987 0.84,4.32 v 0 0 c 0.56,1.333 1.32,2.48 2.28,3.44 v 0 0 c 0.96,0.96 2.107,1.72 3.439999,2.28 v 0 0 c 1.333,0.56 2.8,0.84 4.39999,0.84 v 0 0 c 1.6,0 3.08,-0.28 4.44,-0.84 v 0 0 c 1.36,-0.56 2.533,-1.333 3.52,-2.32 v 0 0 c 0.987,-0.987 1.747,-2.133 2.28,-3.44 v 0 0 c 0.533,-1.307 0.8,-2.733 0.8,-4.28 v 0 0 c 0,-1.547 -0.267,-2.973 -0.8,-4.28 v 0 0 c -0.533,-1.307 -1.293,-2.44 -2.28,-3.4 v 0 0 c -0.987,-0.96 -2.16,-1.72 -3.52,-2.28 v 0 0 c -1.36,-0.56 -2.84,-0.84 -4.44,-0.84 v 0 0 c -1.59999,0 -3.06699,0.28 -4.39999,0.84 v 0 0 c -1.332999,0.56 -2.479999,1.32 -3.439999,2.28 v 0 0 c -0.96,0.96 -1.72,2.093 -2.28,3.4 v 0 0 c -0.56,1.307 -0.84,2.733 -0.84,4.28 z" />
    <path
       sodipodi:nodetypes="ccccccsccccsccccccc"
       inkscape:connector-curvature="0"
       id="path25"
       d="m 123.02082,16.6543 v 14.80078 h -6 v 6.08008 h 6 l -0.0156,15.30859 c -0.01,0.70697 -0.49268,1.00901 -0.72844,1.2017 -0.22355,0.18272 -0.43561,0.37952 -0.63484,0.58932 -2.6032,2.76776 -2.4694,7.12189 0.29883,9.72461 2.76831,2.60265 7.12245,2.46798 9.72461,-0.30078 2.60189,-2.76752 2.46811,-7.12014 -0.29883,-9.72266 -0.22614,-0.21219 -0.46609,-0.40859 -0.71813,-0.58798 -0.26368,-0.18768 -0.83746,-0.43486 -0.87562,-1.13077 l 0.0469,-15.08203 h 5.97601 V 31.45508 H 129.8197 V 16.6543 Z"
       style="white-space:pre;fill:#313131;fill-opacity:1" />
  </g>
</svg>
