<?xml version="1.0" encoding="UTF-8" standalone="no"?>
<!-- Created with Inkscape (http://www.inkscape.org/) -->

<svg
   xmlns:dc="http://purl.org/dc/elements/1.1/"
   xmlns:cc="http://creativecommons.org/ns#"
   xmlns:rdf="http://www.w3.org/1999/02/22-rdf-syntax-ns#"
   xmlns:svg="http://www.w3.org/2000/svg"
   xmlns="http://www.w3.org/2000/svg"
   xmlns:sodipodi="http://sodipodi.sourceforge.net/DTD/sodipodi-0.dtd"
   xmlns:inkscape="http://www.inkscape.org/namespaces/inkscape"
   version="1.1"
   id="svg2"
   xml:space="preserve"
   width="482.01334"
   height="113.70667"
   viewBox="0 0 482.01334 113.70667"
   sodipodi:docname="Plattsburgh type logo 186 C.svg"
   inkscape:version="0.92.1 r"><metadata
     id="metadata8"><rdf:RDF><cc:Work
         rdf:about=""><dc:format>image/svg+xml</dc:format><dc:type
           rdf:resource="http://purl.org/dc/dcmitype/StillImage" /><dc:title></dc:title></cc:Work></rdf:RDF></metadata><defs
     id="defs6" /><sodipodi:namedview
     pagecolor="#ffffff"
     bordercolor="#666666"
     borderopacity="1"
     objecttolerance="10"
     gridtolerance="10"
     guidetolerance="10"
     inkscape:pageopacity="0"
     inkscape:pageshadow="2"
     inkscape:window-width="1509"
     inkscape:window-height="994"
     id="namedview4"
     showgrid="false"
     inkscape:zoom="0.8194794"
     inkscape:cx="267.9957"
     inkscape:cy="158.55429"
     inkscape:window-x="12"
     inkscape:window-y="1120"
     inkscape:window-maximized="0"
     inkscape:current-layer="g10" /><g
     id="g10"
     inkscape:groupmode="layer"
     inkscape:label="ink_ext_XXXXXX"
     transform="matrix(1.3333333,0,0,-1.3333333,0,113.70667)"><rect
       id="rect3756"
       width="413.67725"
       height="126.74035"
       x="-30.583618"
       y="-106.01018"
       transform="scale(1,-1)"
       style="fill:#e51636;fill-opacity:1;stroke-width:0.97228712"
       inkscape:export-xdpi="89.190224"
       inkscape:export-ydpi="89.190224" /><g
       id="g12"
       transform="scale(0.1)"
       style="fill:#ffffff;fill-opacity:1"
       inkscape:export-xdpi="89.190224"
       inkscape:export-ydpi="89.190224"><path
         d="m 146.941,389.668 c 0,-74.883 -3.203,-70.859 69.274,-79.719 V 289.004 H 0 v 20.945 c 72.4766,8.86 69.2734,4.836 69.2734,79.719 v 362.363 c 0,74.883 3.2032,70.86 -69.2734,79.727 v 20.957 h 210.684 c 133.91,0 199.961,-53.145 199.961,-149.688 0,-115.859 -104.754,-178.652 -228.2,-171.406 v 16.133 c 100.852,-1.621 147.653,58.73 147.653,147.226 0,90.118 -43.575,131.954 -133.938,131.954 H 146.941 V 389.668"
         style="fill:#ffffff;fill-opacity:1;fill-rule:nonzero;stroke:none"
         id="path14"
         inkscape:connector-curvature="0" /><path
         d="M 528.59,851.23 V 384.891 c 0,-69.012 -3.84,-66.707 61.367,-75.907 V 289.023 H 398.176 v 19.961 c 65.203,9.2 61.371,6.895 61.371,75.907 v 391.066 c 0,20.703 -9.203,33.75 -29.152,33.75 h -32.219 v 19.961 c 46.027,1.531 95.125,10.742 128.875,23.105 l 1.539,-1.543"
         style="fill:#ffffff;fill-opacity:1;fill-rule:nonzero;stroke:none"
         id="path16"
         inkscape:connector-curvature="0" /><path
         d="m 950.723,313.867 -4.602,21.485 c -51.398,-19.961 -53.699,13.074 -53.699,52.285 V 558.34 c 0,83.808 -39.121,123.75 -128.953,123.75 -33.801,0 -59.918,-5.371 -95.242,-19.18 -9.204,-3.066 -17.641,-9.219 -22.247,-23.828 L 634.477,598.32 c -0.77,-5.371 1.535,-8.449 6.132,-9.98 l 26.086,-6.152 c 4.598,-0.782 7.668,-0.782 9.977,3.066 18.43,27.684 34.562,69.98 81.418,69.98 47.625,0 65.293,-44.609 65.293,-111.504 L 740.422,511.445 C 650.586,476.074 607.629,453.008 607.629,379.961 c 0,-55.84 42.191,-100.527 92.851,-100.527 23.813,0 45.321,9.238 62.989,20.8 l 59.914,40 c 0,-23.046 6.133,-46.933 17.64,-60.8 z m -127.34,140.86 c 0,-101.407 -47.629,-127.52 -87.567,-127.52 -35.336,0 -59.144,29.18 -59.144,65.293 0,78.359 79.109,96.797 146.711,122.148 v -59.921"
         style="fill:#ffffff;fill-opacity:1;fill-rule:nonzero;stroke:none"
         id="path18"
         inkscape:connector-curvature="0" /><path
         d="m 1442.69,385.977 h 19.96 c -0.77,-53.704 38.95,-79.786 83.24,-79.786 44.3,0 70.27,33.75 70.27,65.977 0,49.863 -39.71,67.5 -86.02,101.25 -62.22,45.273 -87.54,57.539 -87.54,108.172 0,64.445 59.84,100.5 122.95,100.5 24.64,0 55.44,-1.543 90.79,-13.047 v -76.719 h -19.95 c -2.32,26.094 -25.41,62.91 -69.41,62.91 -32.28,0 -59.17,-19.23 -59.17,-49.211 0,-36.902 39.19,-56.894 95.29,-96.863 71.97,-50.742 81.15,-79.191 81.15,-114.551 0,-79.961 -71.94,-115.265 -138.18,-115.265 -42.09,0 -75.01,6.906 -103.38,20.715 v 85.918"
         style="fill:#ffffff;fill-opacity:1;fill-rule:nonzero;stroke:none"
         id="path20"
         inkscape:connector-curvature="0" /><path
         d="m 1723.17,288.926 c 48.33,11.894 90.5,-9.582 158.71,-9.582 106.54,0 199.93,96.75 199.93,216.594 0,139.042 -70.4,186.054 -159.3,186.054 -49.05,0 -97.34,-23.906 -130.29,-63.144 V 851.23 l -1.54,1.543 c -33.76,-12.363 -82.85,-21.574 -128.11,-23.105 v -19.961 h 31.45 c 20.72,0 29.15,-13.047 29.15,-33.75 z m 69.05,185.496 c 0,39.18 2.3,82.961 13.02,112.16 9.2,26.113 45.99,59.16 87.38,59.16 56.71,0 113.43,-41.496 113.43,-152.109 0,-139.817 -65.91,-187.442 -127.99,-187.442 -28.36,0 -60.55,4.61 -71.28,18.438 -12.26,14.59 -14.56,50.703 -14.56,72.969 v 76.824"
         style="fill:#ffffff;fill-opacity:1;fill-rule:nonzero;stroke:none"
         id="path22"
         inkscape:connector-curvature="0" /><path
         d="m 2398.8,288.926 c -11.51,12.988 -20.12,27.078 -20.12,49.316 l -67.3,-39.043 c -32.11,-18.32 -48.94,-19.855 -71.12,-19.855 -88.07,0 -111.86,63.508 -111.86,149.562 v 168.262 c 0,35.332 -23.78,32.266 -61.37,32.266 v 19.961 c 41.43,1.531 92.82,10.742 128.88,32.695 l 1.53,-1.543 V 435.82 c 0,-57.636 9.18,-111.406 76.47,-111.406 71.12,0 104.77,38.418 104.77,152.129 v 120.625 c 0,35.332 -23.71,32.266 -61.18,32.266 v 19.961 c 42.06,1.531 93.4,10.742 128.68,32.695 l 1.54,-1.555 V 387.637 c 0,-39.219 11.18,-85.918 63.09,-78.653 v -19.961 l -112.01,-0.097"
         style="fill:#ffffff;fill-opacity:1;fill-rule:nonzero;stroke:none"
         id="path24"
         inkscape:connector-curvature="0" /><path
         d="m 2706.44,609.102 c -7.68,3.836 -16.89,3.066 -28.4,3.066 -31.45,0 -36.82,-52.16 -36.82,-107.695 V 384.871 c 0,-25.301 0,-36.023 3.07,-54.422 3.07,-16.105 30.69,-17.636 72.11,-21.465 v -19.961 h -205.59 v 19.961 c 65.21,9.2 61.38,6.895 61.38,75.887 v 212.356 c 0,35.273 -23.79,32.207 -60.62,32.207 v 19.961 c 41.43,1.531 92.83,10.742 128.12,32.597 l 1.53,-1.531 v -69.055 l 39.89,41.426 c 18.41,19.188 29.15,29.16 42.19,29.16 6.91,0 16.11,-0.762 28.39,-23.019 l 22.25,-39.129 c 2.3,-4.61 -1.54,-7.676 -6.14,-10.742 l -22.24,-15.039 c -4.61,-3.067 -7.68,-1.543 -11.51,0.761 l -27.61,14.278"
         style="fill:#ffffff;fill-opacity:1;fill-rule:nonzero;stroke:none"
         id="path26"
         inkscape:connector-curvature="0" /><path
         d="M 3287.13,851.23 V 614.277 c 32.92,38.418 88.05,67.715 154.66,67.715 93.51,0 111.91,-56.211 111.91,-135.988 V 384.922 c 0,-69.043 -3.83,-66.738 61.38,-75.938 v -19.961 h -191.67 v 19.961 c 65.1,9.2 61.25,6.895 61.25,75.938 v 141.133 c 0,48.34 -3.06,115.84 -84.22,115.84 -98,0 -113.31,-84.375 -113.31,-163.399 v -93.574 c 0,-69.043 -3.84,-66.738 61.25,-75.938 v -19.961 h -191.66 v 19.961 c 65.2,9.2 61.38,6.895 61.38,75.938 v 391.133 c 0,20.644 -9.22,33.652 -29.16,33.652 h -32.22 v 19.961 c 46.02,1.531 95.13,10.742 128.88,23.105 l 1.53,-1.543"
         style="fill:#ffffff;fill-opacity:1;fill-rule:nonzero;stroke:none"
         id="path28"
         inkscape:connector-curvature="0" /><path
         d="m 2943.81,675.957 c 59.07,1.836 101.8,-66.309 101.8,-151.035 0,-42.363 -23.63,-108.672 -84.54,-111.438 -77.25,-2.761 -109.07,88.411 -109.07,150.11 0,45.136 29.1,109.59 91.81,112.363 z m 232.67,-26.719 24.55,40.528 -9.09,11.972 c -42.72,-11.054 -95.44,-16.582 -154.52,-14.734 -22.72,11.043 -50.9,14.734 -83.61,14.734 -85.44,0 -178.15,-52.5 -178.15,-150.117 0,-73.672 33.64,-117.871 102.71,-152.871 l -75.31,-67.473 c -8.18,-41.441 11.15,-65.449 47.14,-74.343 v -1.836 l -82.63,-47.891 C 2753.94,198.926 2755.75,179.59 2755.75,165.77 2755.75,64.4727 2840.2,0 2957.44,0 c 120.88,0 201.62,75.5156 201.62,169.441 0,67.227 -48.62,106.907 -113.15,119.805 l -83.62,16.574 c -54.54,10.137 -79.37,22.95 -79.37,45.039 0,15.664 13.63,28.555 25.44,37.762 7.27,-0.926 20,-1.844 37.27,-1.844 109.98,0 176.31,80.118 176.31,150.118 0,46.96 -18.16,93.007 -39.07,112.343 h 93.61 m -197.22,-416.25 c 55.44,-10.136 119.06,-19.336 119.06,-96.699 0,-50.6445 -51.81,-104.0624 -135.42,-104.0624 -93.62,0 -145.42,51.5703 -145.42,119.7264 0,47.891 37.26,74.59 73.61,96.688 l 88.17,-15.653"
         style="fill:#ffffff;fill-opacity:1;fill-rule:nonzero;stroke:none"
         id="path30"
         inkscape:connector-curvature="0" /><path
         d="m 1178.65,634.234 -31.45,-15.347 h -85.15 V 416.805 c 0,-29.969 1.53,-91.434 52.16,-91.434 20.71,0 40.66,1.543 59.07,9.219 l 5.37,-19.961 -88.99,-35.285 c -53.7,0 -96.656,16.105 -96.656,121.32 v 218.223 h -61.371 v 35.297 h 61.371 v 80.55 c 13.806,14.579 29.146,28.387 48.326,42.961 h 20.72 V 654.184 h 116.6 v -19.95"
         style="fill:#ffffff;fill-opacity:1;fill-rule:nonzero;stroke:none"
         id="path32"
         inkscape:connector-curvature="0" /><path
         d="M 1416.46,634.234 1385,618.887 h -85.15 V 416.805 c 0,-29.969 1.54,-91.434 52.17,-91.434 20.7,0 40.65,1.543 59.06,9.219 l 5.38,-19.961 -88.99,-35.285 c -53.71,0 -96.66,16.105 -96.66,121.32 v 218.223 h -61.37 v 35.297 h 61.37 v 80.55 c 13.81,14.579 29.15,28.387 48.33,42.961 h 20.71 V 654.184 h 116.61 v -19.95"
         style="fill:#ffffff;fill-opacity:1;fill-rule:nonzero;stroke:none"
         id="path34"
         inkscape:connector-curvature="0" /><path
         d="m 76.293,92.1289 c 0.5664,-4.043 1.6836,-7.0703 3.3554,-9.0625 3.0469,-3.6523 8.2618,-5.4687 15.6524,-5.4687 4.4297,0 8.0232,0.4765 10.7892,1.4453 5.238,1.8359 7.859,5.2617 7.859,10.2617 0,2.9219 -1.293,5.1875 -3.886,6.7891 -2.59,1.5625 -6.672,2.9492 -12.2349,4.1402 l -9.5078,2.11 c -9.3476,2.078 -15.7812,4.344 -19.3047,6.797 -5.9843,4.089 -8.9726,10.488 -8.9726,19.199 0,7.949 2.9023,14.551 8.707,19.805 5.8047,5.261 14.332,7.89 25.5781,7.89 9.3949,0 17.4059,-2.48 24.0349,-7.441 6.633,-4.973 10.11,-12.176 10.43,-21.621 h -17.656 c -0.324,5.332 -2.699,9.121 -7.106,11.367 -2.941,1.484 -6.6013,2.226 -10.9646,2.226 -4.8633,0 -8.7383,-0.957 -11.6406,-2.89 -2.8985,-1.914 -4.3516,-4.61 -4.3516,-8.047 0,-3.176 1.4336,-5.539 4.293,-7.102 1.8359,-1.043 5.7383,-2.265 11.7109,-3.66 l 15.4689,-3.672 c 6.781,-1.601 11.851,-3.75 15.223,-6.425 5.222,-4.18 7.835,-10.2153 7.835,-18.1177 0,-8.0937 -3.109,-14.832 -9.324,-20.1835 -6.218,-5.3516 -14.996,-8.0274 -26.3435,-8.0274 -11.5898,0 -20.7031,2.6367 -27.3437,7.918 -6.6407,5.2734 -9.9571,12.5312 -9.9571,21.7695 H 76.293"
         style="fill:#ffffff;fill-opacity:1;fill-rule:nonzero;stroke:none"
         id="path36"
         inkscape:connector-curvature="0" /><path
         d="M 229.516,153.379 V 137.598 H 202.953 V 64.6289 h -18.594 v 72.9691 h -26.562 v 15.781 h 71.719"
         style="fill:#ffffff;fill-opacity:1;fill-rule:nonzero;stroke:none"
         id="path38"
         inkscape:connector-curvature="0" /><path
         d="m 275.152,98.2227 h 22.563 l -11.113,34.9803 z m 1.258,55.3123 h 20.813 l 31.16,-88.9061 h -20 l -5.805,18.2813 h -32.441 l -5.981,-18.2813 h -19.234 l 31.488,88.9061"
         style="fill:#ffffff;fill-opacity:1;fill-rule:nonzero;stroke:none"
         id="path40"
         inkscape:connector-curvature="0" /><path
         d="M 415.219,153.379 V 137.598 H 388.656 V 64.6289 H 370.063 V 137.598 H 343.5 v 15.781 h 71.719"
         style="fill:#ffffff;fill-opacity:1;fill-rule:nonzero;stroke:none"
         id="path42"
         inkscape:connector-curvature="0" /><path
         d="m 504.055,137.754 h -41.567 v -18.906 h 38.125 V 103.535 H 462.488 V 80.5664 h 43.598 V 64.6289 H 445.77 v 88.7501 h 58.285 v -15.625"
         style="fill:#ffffff;fill-opacity:1;fill-rule:nonzero;stroke:none"
         id="path44"
         inkscape:connector-curvature="0" /><path
         d="m 598.977,153.379 h 18.75 V 98.9922 c 0,-6.082 0.714,-10.5274 2.156,-13.3281 2.246,-4.961 7.133,-7.4414 14.668,-7.4414 7.492,0 12.351,2.4804 14.597,7.4414 1.45,2.8007 2.168,7.2461 2.168,13.3281 v 54.3868 h 18.75 V 98.8867 c 0,-9.4258 -1.461,-16.7578 -4.382,-22.0117 -5.442,-9.6289 -15.821,-14.4336 -31.133,-14.4336 -15.321,0 -25.723,4.8047 -31.199,14.4336 -2.922,5.2539 -4.375,12.5859 -4.375,22.0117 v 54.4923"
         style="fill:#ffffff;fill-opacity:1;fill-rule:nonzero;stroke:none"
         id="path46"
         inkscape:connector-curvature="0" /><path
         d="m 714.719,153.379 h 19.199 l 35.328,-61.8868 v 61.8868 h 17.031 V 64.6289 H 767.984 L 731.746,127.762 V 64.6289 h -17.027 v 88.7501"
         style="fill:#ffffff;fill-opacity:1;fill-rule:nonzero;stroke:none"
         id="path48"
         inkscape:connector-curvature="0" /><path
         d="M 845.762,64.6289 H 827.48 v 88.7501 h 18.282 V 64.6289"
         style="fill:#ffffff;fill-opacity:1;fill-rule:nonzero;stroke:none"
         id="path50"
         inkscape:connector-curvature="0" /><path
         d="m 940.961,153.379 h 19.023 L 929.797,64.6289 h -17.274 l -29.847,88.7501 h 19.719 l 19.183,-67.3751 19.383,67.3751"
         style="fill:#ffffff;fill-opacity:1;fill-rule:nonzero;stroke:none"
         id="path52"
         inkscape:connector-curvature="0" /><path
         d="m 1050.78,137.754 h -41.57 v -18.906 h 38.13 v -15.313 h -38.13 V 80.5664 h 43.6 V 64.6289 h -60.314 v 88.7501 h 58.284 v -15.625"
         style="fill:#ffffff;fill-opacity:1;fill-rule:nonzero;stroke:none"
         id="path54"
         inkscape:connector-curvature="0" /><path
         d="M 1105.69,138.223 V 114.16 h 18.36 c 3.65,0 6.38,0.488 8.21,1.453 3.22,1.711 4.83,5.071 4.83,10.09 0,5.43 -1.56,9.07 -4.68,10.938 -1.75,1.054 -4.38,1.582 -7.89,1.582 z m 35.18,13.015 c 3.01,-1.402 5.55,-3.484 7.64,-6.218 1.73,-2.247 3.1,-4.747 4.1,-7.481 1.01,-2.734 1.52,-5.859 1.52,-9.355 0,-4.231 -0.98,-8.379 -2.93,-12.461 -1.96,-4.094 -5.17,-6.973 -9.67,-8.664 3.73,-1.649 6.37,-3.993 7.92,-7.02 1.56,-3.0273 2.33,-7.6562 2.33,-13.8867 v -5.9687 c 0,-4.0625 0.16,-6.8164 0.47,-8.2617 0.47,-2.293 1.56,-3.9727 3.28,-5.0664 v -2.2266 h -18.83 c -0.52,1.9727 -0.89,3.5547 -1.11,4.7656 -0.45,2.4883 -0.69,5.0391 -0.73,7.6563 l -0.11,8.2617 c -0.07,5.6641 -0.97,9.4336 -2.7,11.3281 -1.73,1.8828 -4.97,2.8321 -9.71,2.8321 h -16.65 V 64.6289 h -16.72 V 153.535 H 1128 c 5.57,-0.117 9.87,-0.89 12.87,-2.297"
         style="fill:#ffffff;fill-opacity:1;fill-rule:nonzero;stroke:none"
         id="path56"
         inkscape:connector-curvature="0" /><path
         d="m 1199.85,92.1289 c 0.57,-4.043 1.69,-7.0703 3.36,-9.0625 3.04,-3.6523 8.26,-5.4687 15.66,-5.4687 4.42,0 8.01,0.4765 10.78,1.4453 5.24,1.8359 7.86,5.2617 7.86,10.2617 0,2.9219 -1.29,5.1875 -3.89,6.7891 -2.59,1.5625 -6.67,2.9492 -12.23,4.1402 l -9.51,2.11 c -9.34,2.078 -15.78,4.344 -19.31,6.797 -5.98,4.089 -8.97,10.488 -8.97,19.199 0,7.949 2.9,14.551 8.71,19.805 5.81,5.261 14.33,7.89 25.58,7.89 9.39,0 17.4,-2.48 24.03,-7.441 6.63,-4.973 10.11,-12.176 10.43,-21.621 h -17.65 c -0.33,5.332 -2.7,9.121 -7.11,11.367 -2.94,1.484 -6.59,2.226 -10.96,2.226 -4.87,0 -8.74,-0.957 -11.64,-2.89 -2.91,-1.914 -4.36,-4.61 -4.36,-8.047 0,-3.176 1.44,-5.539 4.3,-7.102 1.83,-1.043 5.73,-2.265 11.71,-3.66 l 15.47,-3.672 c 6.78,-1.601 11.85,-3.75 15.22,-6.425 5.22,-4.18 7.84,-10.2153 7.84,-18.1177 0,-8.0937 -3.11,-14.832 -9.33,-20.1835 -6.22,-5.3516 -15,-8.0274 -26.34,-8.0274 -11.59,0 -20.71,2.6367 -27.34,7.918 -6.64,5.2734 -9.96,12.5312 -9.96,21.7695 h 17.65"
         style="fill:#ffffff;fill-opacity:1;fill-rule:nonzero;stroke:none"
         id="path58"
         inkscape:connector-curvature="0" /><path
         d="m 1310.25,64.6289 h -18.28 v 88.7501 h 18.28 V 64.6289"
         style="fill:#ffffff;fill-opacity:1;fill-rule:nonzero;stroke:none"
         id="path60"
         inkscape:connector-curvature="0" /><path
         d="m 1413.51,153.379 v -15.781 h -26.57 V 64.6289 h -18.59 v 72.9691 h -26.56 v 15.781 h 71.72"
         style="fill:#ffffff;fill-opacity:1;fill-rule:nonzero;stroke:none"
         id="path62"
         inkscape:connector-curvature="0" /><path
         d="m 1494.66,153.379 h 20.89 L 1486.03,97.6953 V 64.6289 h -18.28 V 97.793 l -30.57,55.586 h 21.74 l 18.28,-38.652 17.46,38.652"
         style="fill:#ffffff;fill-opacity:1;fill-rule:nonzero;stroke:none"
         id="path64"
         inkscape:connector-curvature="0" /><path
         d="m 1655.36,86.0156 c 4.32,5.4102 6.48,13.0938 6.48,23.0664 0,9.93 -2.16,17.606 -6.48,23.027 -4.32,5.43 -10.15,8.145 -17.49,8.145 -7.35,0 -13.22,-2.707 -17.59,-8.106 -4.38,-5.41 -6.57,-13.097 -6.57,-23.066 0,-9.9726 2.19,-17.6562 6.57,-23.0664 4.37,-5.4023 10.24,-8.1054 17.59,-8.1054 7.34,0 13.17,2.7031 17.49,8.1054 z m 11.39,-13.5351 c -6.67,-6.9063 -16.32,-10.3516 -28.95,-10.3516 -12.62,0 -22.27,3.4453 -28.94,10.3516 -8.95,8.4648 -13.43,20.664 -13.43,36.6015 0,16.25 4.48,28.457 13.43,36.602 6.67,6.894 16.32,10.351 28.94,10.351 12.63,0 22.28,-3.457 28.95,-10.351 8.91,-8.145 13.37,-20.352 13.37,-36.602 0,-15.9375 -4.46,-28.1367 -13.37,-36.6015"
         style="fill:#ffffff;fill-opacity:1;fill-rule:nonzero;stroke:none"
         id="path66"
         inkscape:connector-curvature="0" /><path
         d="m 1713.51,153.379 h 57.34 v -15.625 h -40.62 v -20.469 h 35.62 v -15.312 h -35.62 V 64.6289 h -16.72 v 88.7501"
         style="fill:#ffffff;fill-opacity:1;fill-rule:nonzero;stroke:none"
         id="path68"
         inkscape:connector-curvature="0" /><path
         d="m 1860.6,153.379 h 19.19 l 35.34,-61.8868 v 61.8868 h 17.03 V 64.6289 h -18.3 l -36.23,63.1331 V 64.6289 h -17.03 v 88.7501"
         style="fill:#ffffff;fill-opacity:1;fill-rule:nonzero;stroke:none"
         id="path70"
         inkscape:connector-curvature="0" /><path
         d="m 2032.88,137.754 h -41.56 v -18.906 h 38.12 v -15.313 h -38.12 V 80.5664 h 43.59 V 64.6289 h -60.31 v 88.7501 h 58.28 v -15.625"
         style="fill:#ffffff;fill-opacity:1;fill-rule:nonzero;stroke:none"
         id="path72"
         inkscape:connector-curvature="0" /><path
         d="m 2085.7,153.379 11.72,-50.82 2.53,-14.141 2.58,13.848 9.95,51.113 h 19.47 l 10.46,-50.82 2.7,-14.141 2.68,13.602 11.76,51.359 h 18.73 L 2153.5,64.6289 h -17.6 l -10.65,51.9141 -3.11,17.148 -3.12,-17.168 -10.67,-51.8941 h -17.14 l -25.11,88.7501 h 19.6"
         style="fill:#ffffff;fill-opacity:1;fill-rule:nonzero;stroke:none"
         id="path74"
         inkscape:connector-curvature="0" /><path
         d="m 2309.83,153.379 h 20.89 L 2301.21,97.6953 V 64.6289 h -18.28 V 97.793 l -30.58,55.586 h 21.75 l 18.28,-38.652 17.45,38.652"
         style="fill:#ffffff;fill-opacity:1;fill-rule:nonzero;stroke:none"
         id="path76"
         inkscape:connector-curvature="0" /><path
         d="m 2413.95,86.0156 c 4.31,5.4102 6.47,13.0938 6.47,23.0664 0,9.93 -2.16,17.606 -6.47,23.027 -4.32,5.43 -10.15,8.145 -17.49,8.145 -7.36,0 -13.22,-2.707 -17.59,-8.106 -4.39,-5.41 -6.58,-13.097 -6.58,-23.066 0,-9.9726 2.19,-17.6562 6.58,-23.0664 4.37,-5.4023 10.23,-8.1054 17.59,-8.1054 7.34,0 13.17,2.7031 17.49,8.1054 z m 11.39,-13.5351 c -6.68,-6.9063 -16.33,-10.3516 -28.95,-10.3516 -12.63,0 -22.28,3.4453 -28.95,10.3516 -8.94,8.4648 -13.43,20.664 -13.43,36.6015 0,16.25 4.49,28.457 13.43,36.602 6.67,6.894 16.32,10.351 28.95,10.351 12.62,0 22.27,-3.457 28.95,-10.351 8.91,-8.145 13.36,-20.352 13.36,-36.602 0,-15.9375 -4.45,-28.1367 -13.36,-36.6015"
         style="fill:#ffffff;fill-opacity:1;fill-rule:nonzero;stroke:none"
         id="path78"
         inkscape:connector-curvature="0" /><path
         d="M 2487.6,138.223 V 114.16 h 18.36 c 3.65,0 6.38,0.488 8.21,1.453 3.22,1.711 4.83,5.071 4.83,10.09 0,5.43 -1.56,9.07 -4.67,10.938 -1.76,1.054 -4.39,1.582 -7.89,1.582 z m 35.18,13.015 c 3.01,-1.402 5.56,-3.484 7.64,-6.218 1.73,-2.247 3.1,-4.747 4.11,-7.481 1.01,-2.734 1.51,-5.859 1.51,-9.355 0,-4.231 -0.98,-8.379 -2.92,-12.461 -1.96,-4.094 -5.18,-6.973 -9.67,-8.664 3.72,-1.649 6.36,-3.993 7.92,-7.02 1.55,-3.0273 2.32,-7.6562 2.32,-13.8867 v -5.9687 c 0,-4.0625 0.16,-6.8164 0.47,-8.2617 0.47,-2.293 1.56,-3.9727 3.28,-5.0664 v -2.2266 h -18.83 c -0.51,1.9727 -0.89,3.5547 -1.11,4.7656 -0.45,2.4883 -0.68,5.0391 -0.72,7.6563 l -0.12,8.2617 c -0.07,5.6641 -0.97,9.4336 -2.7,11.3281 -1.72,1.8828 -4.96,2.8321 -9.7,2.8321 H 2487.6 V 64.6289 h -16.72 v 88.9061 h 39.03 c 5.58,-0.117 9.87,-0.89 12.87,-2.297"
         style="fill:#ffffff;fill-opacity:1;fill-rule:nonzero;stroke:none"
         id="path80"
         inkscape:connector-curvature="0" /><path
         d="m 2572.23,153.535 h 16.87 v -36.523 l 31.5,36.523 h 22.03 l -33.41,-36.64 35.12,-52.2661 h -21.92 l -25.17,38.7381 -8.15,-9.0037 V 64.6289 h -16.87 v 88.9061"
         style="fill:#ffffff;fill-opacity:1;fill-rule:nonzero;stroke:none"
         id="path82"
         inkscape:connector-curvature="0" /></g></g></svg>