<svg version="1" xmlns="http://www.w3.org/2000/svg" width="1877.333" height="1877.333" viewBox="0 0 1408.000000 1408.000000"><path d="M.1 617.5C0 801.8.1 811 1.7 811.1c1 0 14.6.1 30.3.1l28.5.1.3-193.6.3-193.7H.3L.1 617.5zM1097 513.7v89.8l20.2-.1c30.5-.3 44.2-.7 45.3-1.4.6-.4 1.7-.8 2.5-.8 8.5-.4 24.1-6.5 34.1-13.3 14.8-10 26.2-24.2 32.2-40 3.5-9.2 5.6-21.4 5.7-31.9 0-16.1-1.7-24.4-8.4-42-3.3-8.7-14.7-22.7-24.6-30.2-6.5-5-24.2-14.3-29-15.2-1.4-.3-4.3-1-6.5-1.5-8.9-2.1-12.2-2.3-41.2-2.8l-30.3-.5v89.9zm57.5-72.3c2.8.3 6.1.8 7.5 1.1 1.4.3 3.4.7 4.5.9 3.5.8 12.6 4.4 14.1 5.7.8.6 1.4.8 1.4.5 0-.4 2.8 1.2 6.3 3.5 14.1 9.5 23.5 22.1 28.2 37.9 2.3 7.6 2.7 10.1 3 21.3.8 31.7-14.6 56.6-42.1 68-12.6 5.2-18.5 6-43.4 6.1l-19.5.1-.1-72.7c0-63.8.1-72.8 1.5-73 2.6-.5 33.4-.1 38.6.6zM1275.1 513.5V603l3.7.1c16.4.3 50.8-.1 55.7-.7 16.6-1.8 32.3-10.5 39.8-21.9 6.5-9.9 8.8-26.4 5.2-38.2-3.7-12.3-15.1-23.7-27.9-27.7l-5.8-1.8 5.5-2.9c13.7-7 21.2-21.3 20.9-39.7-.2-8.3-.4-9.8-1.9-15.2-3.2-11.8-9.8-19.7-20.4-24.8-10.2-4.9-18.9-6.1-48.6-6.2l-26.2-.1v89.6zm51.4-73.1c6.7.8 10.8 2 15.3 4.7 9 5.4 12.7 12.4 13.1 24.7.5 16.9-7.4 30-20.6 33.8-8.3 2.4-41.2 2.8-41.4.4-.1-.8-.2-15.5-.3-32.5l-.1-31 3-.5c3.9-.7 24.6-.4 31 .4zm4 80.9c1.1.2 3.7.7 5.7 1.1 6.6 1.2 15.6 6.1 20.3 11 1.1 1.2 3.1 4.1 4.5 6.6 2.2 3.9 2.5 5.8 2.5 14 0 8.6-.3 10-2.9 14.7-5.6 10.1-15.6 16.3-29 18-5.5.6-35.1 1.1-37.6.5-1.3-.3-1.5-4.7-1.4-33 .1-18 .2-33 .3-33.4.1-.7 34.3-.3 37.6.5zM915.6 467.9c-.2.3-.3 24.1-.2 52.8.1 45.6-.1 52.2-1.4 52.5-.8.2-5.7.3-10.7.3l-9.3-.1V617h21.5l-.2 55.3c-.2 30.3-.4 56-.5 57-.1.9-2.2 3.6-4.7 6-12.8 11.8-18 23.6-17.5 39.7.2 8.8 2.7 17.7 6.5 23.2 1.1 1.4 1.9 3 1.9 3.5 0 1.9 12.9 13 18.2 15.5 20 9.7 42 6 57.3-9.6 5.3-5.4 11.1-14.9 12-19.5.2-.9.4-1.6.5-1.6 1.3 0 1.7-17.8.6-23.9-2.1-11.1-10.2-23-20.1-29.7-5.1-3.5-5.8-6-5.4-18.9v-12.5V689c0-.8 0-3.8-.1-6.5 0-2.8 0-18.6.1-35.3l.3-30.2h42.6v-43.6l-21.3.1h-21.4l.1-52.3c.1-28.8-.1-52.7-.4-53.1-.6-.9-47.9-1.1-48.4-.2zm34.4 14c.3 0 .5 55.6.4 123.3 0 72.6.3 125.1.9 127.7 1 4.6 3.1 7 13.6 15.3 5.4 4.3 9.3 10.3 10.6 16.3.8 3.4.9 12.7.3 16.6-.7 4.3-5.6 13.5-9.1 16.9-3.3 3.3-10.1 7.6-12.7 8.2-.8.2-1.7.6-2 1-1.1 1.4-14.1 1.6-18.8.3-8.8-2.3-13.3-5.5-20.5-14.1-4.4-5.3-6.8-17.5-5.3-27.4 1-6.6 5.4-13.1 14.8-21.7 5.1-4.6 7.1-9.6 7.4-18.3.2-4.1.4-7.7.5-8 .1-.3 0-1-.1-1.5-.3-1.2-.2-20.6 0-22 .2-.6.2-1.4.1-1.9-.2-1.1-.2-100.7 0-102.1.1-.6 0-1.5-.1-2-.3-1.2-.2-20.6 0-22 .2-.6.1-1.5 0-2-.1-.6-.2-3.9-.2-7.5s.1-22.1.1-41.1l.1-34.6 9.8.2c5.3.2 9.9.3 10.2.4zM982.1 468c-.5.3-.8 3.2-.7 6.5l.2 6 12.7.3 12.8.3-.2-6.8-.2-6.8h-11.9c-6.5 0-12.3.2-12.7.5z"/><path d="M981.4 509.7l.2 6.7 8.2.1c4.6 0 8.3-.4 8.5-1 .2-.6.3-3.5.3-6.5l-.1-5.5-8.6-.3-8.7-.3.2 6.8zM981.7 539.8c-.2.4-.4 3.4-.3 6.7l.1 6 11.5.1c6.3 0 12.1-.1 12.8-.4.8-.3 1.2-2.6 1.2-6.7v-6.4h-12.5c-6.8 0-12.6.3-12.8.7zM289.6 559.7c-.1.2-2.9.5-6.3.8-5.6.5-11.4 1.5-17.3 3-1.4.3-3.5.8-4.6 1-13.1 2.8-38.8 17.1-50.5 28.2-2.6 2.4-5.3 4.9-6.2 5.6-2.3 1.9-14.7 17.7-16.4 21.1-.9 1.7-1.9 3.3-2.2 3.6-.4.3-2 3.2-3.5 6.5-6.9 14.5-10.3 25.3-12.2 38.5-1 6.6-1.2 30-.3 33.5.4 1.6 1.1 4.8 1.4 7.1.6 4.3 3.5 14.9 5.5 19.9.6 1.6 1.1 3.1 1 3.3-.1.3 9.2 18.3 10.2 19.7 15.7 21.4 28.6 34 43.3 42.1 1.1.6 3.6 2 5.5 3.1 8.7 4.9 28.5 11.7 37.9 12.9 2 .2 4.7.7 6.1 1 2.9.5 27.3.5 31-.1 20.5-3.2 30.6-6.7 49.5-16.9 4.5-2.4 13.5-9.2 13.5-10.1 0-.6-1.1-2.4-2.5-4-1.3-1.7-2.8-3.5-3.2-4-2.9-3.7-16-20.2-17.5-21.9-1-1.1-2.6-3.2-3.7-4.6l-1.9-2.5-4.4 3.1c-7.8 5.6-16.3 9.2-28.3 12-1.6.4-8.8.8-16 1-14 .3-24.2-1.5-32.7-5.6-2.3-1.1-4.8-2-5.5-2-.7 0-1.3-.5-1.3-1 0-.6-.5-1-1.1-1-3.7 0-22.2-16.7-26.2-23.6-9.3-16.3-11.7-24.3-12.2-40.9-.5-14.4.7-22.2 5.1-33.3 4.8-12.2 14.8-24.9 25.8-32.7 9.1-6.5 21.9-11.6 33.8-13.5 7.5-1.2 26.1-.6 32.3 1 2.2.6 4.7 1.2 5.5 1.4 4.4 1.1 12.8 5.1 18.6 8.8l6.7 4.2 1.9-2.5c1.1-1.3 2.9-3.5 4.1-4.9 16.7-19.4 24.7-29.2 24.3-29.9-1.2-1.9-13.2-9.3-22.7-13.9-9.9-4.9-22.3-9.3-29.9-10.6-1.9-.3-4.6-.9-6-1.1-1.4-.3-6.3-.8-11-1-4.7-.2-8.5-.5-8.5-.6 0-.2-8.7-.4-8.9-.2zM596.8 566.5c-.2.2-3.1.6-6.4.9-3.4.3-6.8.8-7.5 1.1-.8.2-2.5.6-3.9.9-5.1.9-16.2 4.8-23.7 8.3-20.7 9.6-40 26.1-52.9 45.5-5.8 8.7-13.2 23-14.8 28.8-.1.3-.9 2.7-1.9 5.5-3.6 11-5.1 21.8-5 37.5 0 15.4.9 21.5 4.9 35 2.7 8.7 11 27.2 12.5 27.8.5.2.9.8.9 1.2 0 1 3.2 5.8 8 12.2 4.4 5.8 21 21.8 22.6 21.8.4 0 1.7.9 2.8 1.9 1.2 1.1 4.4 3.2 7.1 4.7 2.8 1.5 6.4 3.5 8 4.4 1.7.9 6.2 2.9 10 4.4 3.9 1.5 7.9 3.1 9 3.6 1.9.8 11.2 3.2 18 4.5 5.6 1.1 28.9 1.4 36 .5 10.7-1.5 11.9-1.7 18.2-3.4 17.7-5 35.4-15.5 43.2-25.7 2-2.6 3.9-4.8 4.4-4.8.4-.1.7 6.2.6 13.9-.1 7.8.1 14.3.4 14.7.4.3 11.3.6 24.2.7 21.9.1 23.6 0 24.1-1.7.3-1 .5-7.3.5-14-.2-13.6-.2-13.9-.2-20.2 0-5.3 0-4.3.1-17.5.1-5.8.1-11 0-11.5-.1-.6-.1-4.2-.1-8 .1-3.9.1-9.8 0-13.3v-8c.2-10 .2-38.8 0-39.2-.1-.3 0-.9.1-1.5.1-.5.1-7.3.1-15-.1-7.7-.1-16.6-.1-19.8-.1-3.1-.1-8.6-.1-12.2v-8.3V606c0-8 .1-15.9.1-17.5.1-1.7.2-3.7.1-4.5 0-.8-.1-3.6-.1-6.3-.1-3.7-.5-4.7-1.8-4.8-7.4-.5-44.5-.3-44.8.3-.4.7-2 20-2.3 28.3-.1 2.9-.3 2.8-6.7-4.2-3.6-4-9.5-9.4-13.2-12.1-6.7-4.8-20.8-12.2-23.4-12.2-.8 0-1.8-.4-2.4-.8-.9-.9-8.8-2.9-13.9-3.7-1.6-.2-4.3-.7-6-1-3-.7-24.2-1.5-24.7-1zm23.8 49c1.6.3 4.5.8 6.4 1.1 7.5 1.3 24.8 9.1 28.7 12.9.8.8 1.7 1.5 2.1 1.5 1.3 0 8.9 7.5 13.1 12.9 5.5 7.1 11.4 19.6 13.7 29.1 2.5 10.6 2.5 27.5-.1 38.5-1.2 5-5.7 16.8-7.5 19.5-.9 1.4-2.9 4.4-4.5 6.7-8.8 13.5-26.4 25-45.5 29.9-10.3 2.7-27.5 2.6-39-.3-8.2-2-21.4-7.3-23-9.2-.3-.4-1.7-1.4-3.1-2.3-4.5-2.9-13.5-11.6-16.5-16-1.6-2.4-3.2-4.5-3.5-4.8-1.3-1.1-6.8-12.9-8.8-19-2.8-8.5-3.6-14.4-3.4-26.5.3-17.5 6.4-33.7 18.3-48.8 1.2-1.5 9.8-9 15.6-13.6 2.4-2 16.4-8 21.9-9.5 10.9-3 25.9-3.9 35.1-2.1zM980.2 644.9l.3 6.6 13.3.1h13.3l-.3-6.5-.3-6.6-13.3-.1h-13.3l.3 6.5z"/><path d="M1207.7 641.6c-.1.1-5.4.5-11.7.8-12.7.8-16.8 1.1-22 2.1-1.9.4-4.7.8-6.2 1-1.5.2-4.4.8-6.5 1.4-2.1.6-4.9 1.2-6.3 1.5-3.6.6-16.3 5.3-23.4 8.7-38.6 18.1-61.5 53.1-69.1 105.9-1.1 7.2-1.4 11.7-2 26-.5 15.9-1.2 24.3-2.5 32.5-1.4 8.6-1.8 10.3-3.5 16.5-.8 3-1.7 6.4-2 7.4-1.7 7.1-10.9 25.9-15.6 31.8-1.6 2-2.9 3.9-2.9 4.3 0 .6-4.1 5.2-9.8 11.1-4.6 4.7-16.5 13.5-23.2 17.1-4.9 2.6-15.7 7.2-18.5 7.7-.5.1-2.6.7-4.5 1.4-8.6 2.8-16.8 3.7-35 3.7-18 0-24-.7-35.7-4.1-18.4-5.3-30.6-12.7-44.8-26.9-12.4-12.4-21.8-26.8-30.6-46.7-3.9-8.8-11.6-29-12.4-32.6-.3-.9-3.6-11.2-7.6-22.7-3.9-11.6-7.2-21.5-7.3-22-.3-1.1-3.1-7.6-5-11.8l-1.3-2.7-1.1 2.2c-1.1 2.3-8.9 23.6-15.7 42.8-14.5 41.1-25.6 60.2-47.6 82-11.1 11-21.3 18.3-34.8 25-9.3 4.6-21.8 9.7-25.7 10.4-1 .2-3.9 1-6.4 1.7-2.5.7-4.7 1.3-5 1.4-2.8.6-8.9 1.8-10.5 2-1.1.2-4.7.7-8 1.2-11 1.5-50.6.6-53.6-1.3-.4-.2-2.4-.6-4.4-1-15.7-2.5-39.5-11.7-52.8-20.6-3.2-2.1-6.1-3.8-6.4-3.8-.3 0-1.8-1-3.3-2.3-1.5-1.2-4.3-3.3-6.1-4.7-5.5-4.2-23.3-22.1-27.7-28-2.3-3-4.5-6-5-6.5-4.9-6.4-17.2-29.9-18.8-36-.1-.6-1.4-3.9-2.8-7.4-1.4-3.6-2.6-6.8-2.6-7.2 0-.4-.5-2-1.2-3.6-.6-1.5-1.2-3.3-1.3-3.8-.8-3.3-13.8-39.1-14.4-39.8-.4-.4-.8-.2-.8.5-.1 1.1-3.4 10.1-7.8 21.3-.4 1.1-.9 2.4-1.1 3-.6 2.1-9.3 26.2-10.5 29-.7 1.6-1.3 3.2-1.4 3.5-4.8 12.8-18.6 39-20.7 39-.4 0-.8.7-.8 1.5s-.4 1.5-.8 1.5-1.6 1.5-2.7 3.2c-3.2 5.6-28.4 29.8-34.4 33.2-.9.5-1.8 1.2-2.1 1.5-.7.8-3.2 2.3-13 7.8-13.7 7.6-40.3 16.9-59.5 20.7-1.1.3-5.4 1.1-9.5 2-4.1.8-9.5 1.7-12 2-2.5.4-5.6.8-7 1.1-11.7 2-29.8 3-55.5 2.9-24.5-.1-43.9-.9-63.5-2.8-3-.3-8.6-.8-12.5-1.2-3.8-.3-8.3-.8-10-1-1.6-.2-5.5-.6-8.5-.9-3-.3-6.4-.8-7.5-1-1.1-.2-5.4-.7-9.5-1.1-4.1-.3-7.9-.8-8.3-1.1-.5-.3-2.9-.7-5.5-.9-5.1-.4-8-.8-21.7-2.9-4.9-.8-10.8-1.6-13-2-5.4-.7-9.4-1.4-13-2.1-5.7-1.1-8.8-1.4-8.3-.9.4.4 21.6 6.8 26.3 8 .6.1 1.7.5 2.5.8 2.2.9 26.1 7.8 28.9 8.3 1.4.3 2.9.8 3.4 1.1.5.3 2.3.9 4.1 1.3 1.7.5 11.4 3.1 21.6 6 10.2 2.8 19.4 5.3 20.5 5.5 1.1.3 5.8 1.4 10.5 2.6 4.7 1.1 9.6 2.3 10.9 2.5 1.4.3 2.8.7 3.1.9.4.2 2.2.7 4.1 1 1.9.3 5 1 6.9 1.5 3.5.9 22.8 4.9 26.5 5.4 1.1.2 4.7.8 8 1.4 3.3.6 7.8 1.4 9.9 1.7 2.1.3 4.8.7 6 1 1.2.2 4.6.7 7.6 1 3 .3 7.1.8 9 1.1 31.8 4.5 85.5 3.2 105.5-2.6 1.7-.5 4.4-1.1 6-1.4 4.1-.7 15.2-4 20-6 2.2-.9 4.2-1.7 4.5-1.8 3.8-.5 22.3-10 32-16.4 14.4-9.5 29.2-23.2 38-35.3 2.4-3.2 4.8-5.7 5.4-5.5.7.3 2.1 2.1 3.1 4.1 1.1 2 2.5 4.1 3 4.7.6.6 3.3 4.2 6 8.1 9.1 12.9 25.5 28 42 38.7 19.7 12.9 49.4 25 72 29.4 1.1.2 3.1.6 4.5.9 2.8.7 3.2.7 21.5 3.2 10.4 1.4 51.7.6 59.8-1.2 1.2-.2 3.8-.7 5.7-1 4.5-.6 10.8-1.8 15.5-2.8 6.1-1.4 19.5-5.3 23-6.7 1.1-.4 4.3-1.6 7-2.6 2.8-.9 6.5-2.5 8.4-3.5 1.9-1 3.8-1.6 4.3-1.3.4.3.8 0 .8-.5 0-.6.6-1.1 1.3-1.1 1.7 0 26.1-13.8 26.5-15 .2-.6.9-1 1.6-1 .6 0 3.2-1.7 5.8-3.8 2.5-2 6-4.8 7.8-6.2 8.5-6.5 23-22.7 31.8-35.5l3.3-4.7 6.1 9.3c6.3 9.9 15.4 21.3 21.4 27.3 16.5 16.2 30.1 25.9 48.4 34.8 8.8 4.3 24.1 10.1 29.3 11.2 1.2.3 3.3.8 4.7 1.1 11.2 2.8 20.1 3.8 35 3.9 15.3.1 27.7-.6 31.1-1.8.8-.3 2.5-.7 3.9-1 1.4-.2 4.5-.9 7-1.6 2.5-.7 5.2-1.3 6-1.5 2.6-.5 12.5-3.8 13.5-4.5.6-.4 3.3-1.5 6-2.5 6.1-2.2 21-10 24.4-12.6 1.3-1 2.9-1.9 3.7-1.9.7 0 1.4-.3 1.6-.8.2-.4 4.1-3.6 8.8-7.2 7.6-5.7 29.8-27 28.2-27-.3 0 .6-1.2 2-2.8 7.2-7.8 18.5-26.7 24.9-41.7 1.7-3.9 3.4-7.9 3.9-9 1.4-3 6.8-21.6 7.3-25 .3-1.7.8-3.7 1.1-4.5.5-1.6.8-3.2 3.1-19.5.5-3.9 1.2-15.8 2-34 .3-6.6.6-12.9.9-14 .2-1.1.7-4.3 1-7 3-22.1 12.2-37.7 28.1-48.1 14-9.1 57.3-28.5 60.6-27.1.3.1 1.2-.3 2-1 1.8-1.4 26.4-7.7 34.9-8.9 1.9-.2 4.4-.7 5.5-1.1 1.1-.3 3.1-.7 4.5-.9 1.4-.1 4.1-.5 6-.8 1.9-.4 4.9-.8 6.5-1 1.7-.3 4.6-.7 6.5-1 1.9-.3 5.5-.8 8-1.1 2.5-.3 5.4-.7 6.5-.9 2.9-.5 15.1-1.9 27-3 3.9-.4 8.8-.9 11-1.1 2.2-.3 6.7-.7 10-1 3.3-.2 8.3-.7 11-1 2.8-.2 8.8-.7 13.5-1 4.7-.3 11.4-.8 15-1.1 3.6-.3 10.2-.6 14.7-.8 4.6-.1 8.5-.5 8.8-.8.3-.3-1.9-.9-5.1-1.3-3.1-.4-6.6-.8-7.8-1-1.1-.2-4.3-.6-7.1-.9-2.7-.3-6.1-.8-7.5-1-1.4-.3-5.4-.7-9-1.1-7.2-.7-11.9-1.2-16.6-2-1.7-.2-5.7-.7-8.9-1.1-3.2-.3-6.6-.7-7.6-.9-1-.2-4.9-.7-8.6-1-3.7-.4-7.5-.8-8.3-1-.8-.2-4.6-.7-8.5-1-3.8-.4-8.1-.8-9.5-1-4.4-.7-17.2-2.1-27-3-3.6-.3-8.3-.8-10.5-1.1-9.4-1.1-11.7-1.3-24.5-1.9-12.8-.7-29-1.1-29.3-.9z"/><path d="M981 674c-.4.3-.8 3.3-.8 6.7v6.3h8.4c9 0 8.6.2 8.6-5.5 0-8.7.6-8-7.8-8-4.2 0-7.9.2-8.4.5z"/></svg>